<svg width="23" height="28" viewBox="0 0 23 28" fill="none" xmlns="http://www.w3.org/2000/svg">
<path fill-rule="evenodd" clip-rule="evenodd" d="M8.846 0L19.4614 0.000293022L19.4614 5.24995e-05C20.4 5.24995e-05 21.2999 0.368899 21.9636 1.02514C22.6271 1.68169 23 2.572 23 3.50012V20.9967C23.0006 21.4628 22.8134 21.9099 22.4796 22.2388C22.1461 22.5678 21.6935 22.7518 21.2223 22.7501C20.8227 22.7495 20.4353 22.6127 20.1255 22.3631H20.1258L19.4617 21.8378V19.5966L21.2308 20.9967V3.50007C21.2302 3.03605 21.0436 2.5913 20.7119 2.26318C20.3802 1.93506 19.9306 1.75049 19.4614 1.7502H8.84598C8.37716 1.75049 7.92722 1.93506 7.59579 2.26318C7.26405 2.5913 7.07745 3.03601 7.07686 3.50007H5.30772C5.30772 2.57195 5.68033 1.68163 6.34409 1.02509C7.00755 0.368847 7.90767 0 8.846 0ZM16.656 6.27504C15.9922 5.6188 15.0924 5.24995 14.1538 5.24995L14.1537 5.25025L3.53828 5.24995C2.59995 5.24995 1.69984 5.6188 1.03637 6.27504C0.372611 6.93158 1.40189e-06 7.8219 1.40189e-06 8.75002V26.2466C-0.000591015 26.7127 0.186598 27.1598 0.520112 27.4888C0.853915 27.818 1.30649 28.0017 1.77743 28C2.17729 27.9994 2.56442 27.8626 2.87424 27.6133L7.74096 23.7622C8.05462 23.5141 8.44441 23.3787 8.84603 23.3787C9.24796 23.3787 9.63771 23.5141 9.9514 23.7622L14.8178 27.6133C15.1276 27.8629 15.515 27.9994 15.9146 28C16.3859 28.0017 16.8385 27.8177 17.1719 27.4888C17.5057 27.1598 17.6929 26.7127 17.6923 26.2466V8.75002C17.6923 7.8219 17.3194 6.93159 16.656 6.27504ZM14.1537 7.00013C14.6229 7.00042 15.0725 7.18499 15.4042 7.51311C15.736 7.84123 15.9226 8.28598 15.9232 8.75V26.2466L11.0568 22.3958C10.4291 21.8992 9.64952 21.6288 8.84601 21.6288C8.04273 21.6288 7.26317 21.8992 6.63557 22.3958L1.76915 26.2466V8.75C1.76975 8.28594 1.95635 7.84123 2.28808 7.51311C2.61952 7.18499 3.06945 7.00042 3.53828 7.00013H14.1537H14.1537Z" fill="#0052BD"/>
</svg>
