<svg width="22" height="19" viewBox="0 0 22 19" fill="none" xmlns="http://www.w3.org/2000/svg">
<path d="M18.7853 5.61813H13.9325L15.7389 4.35844C16.0145 4.17631 16.0757 3.81206 15.892 3.53887C15.7083 3.26569 15.3409 3.20498 15.0653 3.3871L11.8659 5.60296H8.8808L10.6872 4.34326C10.9627 4.16113 11.024 3.79689 10.8403 3.5237C10.6566 3.25051 10.2892 3.1898 10.0136 3.37193L6.79887 5.61813H3.59943C1.83898 5.61813 0.400002 7.04478 0.400002 8.79014V12.7058C0.400002 13.4343 0.767401 14.1173 1.36442 14.5271V16.3028C1.36442 17.35 2.237 18.1999 3.30858 18.1999H3.78313C4.30362 18.1999 4.77817 18.0026 5.14557 17.6535C5.51297 17.2893 5.71198 16.8188 5.71198 16.3028C5.71198 15.9841 5.45174 15.7109 5.11496 15.7109C4.79348 15.7109 4.51793 15.9689 4.51793 16.3028C4.51793 16.4849 4.44139 16.667 4.30362 16.8036C4.16584 16.9402 3.96683 17.0161 3.76783 17.0161H3.29327C2.87994 17.0161 2.54316 16.6974 2.54316 16.3028V14.178C2.54316 13.9503 2.40539 13.7379 2.20638 13.6468C1.82367 13.4647 1.57874 13.1004 1.57874 12.6906V8.79014C1.57874 7.68221 2.48193 6.78677 3.59943 6.78677H18.7853C19.9028 6.78677 20.806 7.68221 20.806 8.79014V12.7058C20.806 13.1156 20.561 13.4799 20.1783 13.662C19.964 13.753 19.8415 13.9655 19.8415 14.1932V16.3028C19.8415 16.6974 19.5048 17.0161 19.0914 17.0161H18.6169C18.2035 17.0161 17.8668 16.6974 17.8668 16.3028C17.8668 15.9841 17.6065 15.7109 17.2697 15.7109C16.933 15.7109 16.6727 15.9689 16.6727 16.3028C16.6727 17.35 17.5453 18.1999 18.6169 18.1999H19.0914C20.163 18.1999 21.0356 17.35 21.0356 16.3028V14.5271C21.6326 14.1173 22 13.4343 22 12.7058V8.79014C21.9847 7.04478 20.5457 5.61813 18.7853 5.61813Z" fill="#0052BD"/>
<path d="M0.997025 4.90484H3.29327C3.52289 4.90484 3.73721 4.76825 3.82906 4.57095L4.48732 3.17466C4.50262 3.1443 4.51793 3.11395 4.51793 3.08359C4.80879 2.08191 5.7579 1.36859 6.84479 1.36859H15.5552C16.6421 1.36859 17.5912 2.06673 17.8821 3.08359C17.8974 3.11395 17.8974 3.1443 17.9127 3.17466L18.5709 4.57095C18.6628 4.78343 18.8771 4.90484 19.1067 4.90484H21.403C21.7245 4.90484 22 4.64683 22 4.31294C22 3.99422 21.7398 3.72103 21.403 3.72103H19.4894L19.0149 2.71934C18.5709 1.23199 17.1626 0.199951 15.5705 0.199951H6.8601C5.26804 0.199951 3.85968 1.23199 3.41574 2.71934L2.91056 3.73621H0.997025C0.675551 3.73621 0.400002 3.99422 0.400002 4.32811C0.400002 4.64683 0.660242 4.90484 0.997025 4.90484Z" fill="#0052BD"/>
<path d="M5.13026 14.7851H17.2697C17.5912 14.7851 17.8668 14.5271 17.8668 14.1932C17.8668 13.8593 17.6065 13.6013 17.2697 13.6013H5.13026C4.80879 13.6013 4.53324 13.8593 4.53324 14.1932C4.53324 14.5271 4.79348 14.7851 5.13026 14.7851Z" fill="#0052BD"/>
<path d="M13.5498 11.9319C13.8713 11.9319 14.1469 11.6738 14.1469 11.34C14.1469 11.0212 13.8866 10.748 13.5498 10.748H8.85018C8.52871 10.748 8.25316 11.0061 8.25316 11.34C8.25316 11.6587 8.5134 11.9319 8.85018 11.9319H13.5498Z" fill="#0052BD"/>
<path fill-rule="evenodd" clip-rule="evenodd" d="M4.21177 8.00098C5.17619 8.00098 5.97222 8.77501 5.97222 9.74634C5.97222 10.7177 5.1915 11.5069 4.19646 11.5069C3.23204 11.5069 2.436 10.7177 2.436 9.76152C2.436 9.29103 2.6197 8.85089 2.95649 8.517C3.29327 8.1831 3.73721 8.00098 4.21177 8.00098ZM3.63005 9.74634C3.63005 10.0651 3.89029 10.3231 4.21177 10.3231C4.53324 10.3231 4.79348 10.0651 4.79348 9.74634C4.79348 9.42762 4.53324 9.16961 4.21177 9.16961C4.05868 9.16961 3.9056 9.23032 3.79844 9.33656C3.69128 9.4428 3.63005 9.59457 3.63005 9.74634Z" fill="#0052BD"/>
<path fill-rule="evenodd" clip-rule="evenodd" d="M18.1729 8.01611C19.1374 8.01611 19.9334 8.79014 19.9334 9.76148C19.9334 10.7176 19.1527 11.5068 18.1882 11.5068C17.7137 11.5068 17.2697 11.3247 16.933 10.9908C16.5962 10.6721 16.4125 10.232 16.4125 9.76148C16.4125 8.80532 17.1932 8.01611 18.1729 8.01611ZM18.1729 9.18475C17.8515 9.18475 17.5912 9.44276 17.5912 9.76148C17.5912 9.91325 17.6524 10.0498 17.7596 10.1713C17.8668 10.2775 18.0198 10.3382 18.1729 10.3382C18.4944 10.3382 18.7546 10.0802 18.7546 9.76148C18.7546 9.44276 18.4944 9.18475 18.1729 9.18475Z" fill="#0052BD"/>
</svg>
