<svg width="21" height="21" viewBox="0 0 21 21" fill="none" xmlns="http://www.w3.org/2000/svg">
<path fill-rule="evenodd" clip-rule="evenodd" d="M3.2 20.4H18.4C19.504 20.3986 20.3987 19.504 20.4 18.4V3.19995C20.3987 2.09593 19.504 1.20127 18.4 1.19995H3.2C2.09598 1.20127 1.20132 2.09593 1.2 3.19995V18.4C1.20132 19.504 2.09598 20.3986 3.2 20.4ZM2 3.19995C2 2.53721 2.53726 1.99995 3.2 1.99995H18.4C19.0627 1.99995 19.6 2.53721 19.6 3.19995V18.4C19.6 19.0627 19.0627 19.6 18.4 19.6H3.2C2.53726 19.6 2 19.0627 2 18.4V3.19995Z" fill="#0052BD"/>
<path d="M18.4 20.4V20.65H18.4003L18.4 20.4ZM3.2 20.4L3.1997 20.65H3.2V20.4ZM20.4 18.4L20.65 18.4003V18.4H20.4ZM20.4 3.19995H20.65V3.19965L20.4 3.19995ZM18.4 1.19995L18.4003 0.949951H18.4V1.19995ZM3.2 1.19995V0.949951L3.1997 0.949951L3.2 1.19995ZM1.2 3.19995L0.950001 3.19965V3.19995H1.2ZM1.2 18.4H0.950001L0.950001 18.4003L1.2 18.4ZM18.4 20.15H3.2V20.65H18.4V20.15ZM20.15 18.3997C20.1488 19.3658 19.3659 20.1488 18.3997 20.15L18.4003 20.65C19.6422 20.6485 20.6485 19.6421 20.65 18.4003L20.15 18.3997ZM20.15 3.19995V18.4H20.65V3.19995H20.15ZM18.3997 1.44995C19.3659 1.45111 20.1488 2.23407 20.15 3.20025L20.65 3.19965C20.6485 1.95779 19.6422 0.951439 18.4003 0.949951L18.3997 1.44995ZM3.2 1.44995H18.4V0.949951H3.2V1.44995ZM1.45 3.20025C1.45116 2.23407 2.23412 1.45111 3.2003 1.44995L3.1997 0.949951C1.95784 0.951439 0.951488 1.95779 0.950001 3.19965L1.45 3.20025ZM1.45 18.4V3.19995H0.950001V18.4H1.45ZM3.2003 20.15C2.23412 20.1488 1.45116 19.3658 1.45 18.3997L0.950001 18.4003C0.951488 19.6421 1.95784 20.6485 3.1997 20.65L3.2003 20.15ZM3.2 1.74995C2.39919 1.74995 1.75 2.39914 1.75 3.19995H2.25C2.25 2.67528 2.67533 2.24995 3.2 2.24995V1.74995ZM18.4 1.74995H3.2V2.24995H18.4V1.74995ZM19.85 3.19995C19.85 2.39914 19.2008 1.74995 18.4 1.74995V2.24995C18.9247 2.24995 19.35 2.67528 19.35 3.19995H19.85ZM19.85 18.4V3.19995H19.35V18.4H19.85ZM18.4 19.85C19.2008 19.85 19.85 19.2008 19.85 18.4H19.35C19.35 18.9246 18.9247 19.35 18.4 19.35V19.85ZM3.2 19.85H18.4V19.35H3.2V19.85ZM1.75 18.4C1.75 19.2008 2.39919 19.85 3.2 19.85V19.35C2.67533 19.35 2.25 18.9246 2.25 18.4H1.75ZM1.75 3.19995V18.4H2.25V3.19995H1.75Z" fill="#0052BD"/>
<path d="M13.2 8.79995H8.4C7.73726 8.79995 7.2 8.26269 7.2 7.59995V1.59995C7.2 1.37904 7.37909 1.19995 7.6 1.19995C7.82091 1.19995 8 1.37904 8 1.59995V7.59995C8 7.82087 8.17909 7.99995 8.4 7.99995H13.2C13.4209 7.99995 13.6 7.82087 13.6 7.59995V1.59995C13.6 1.37904 13.7791 1.19995 14 1.19995C14.2209 1.19995 14.4 1.37904 14.4 1.59995V7.59995C14.4 8.26269 13.8627 8.79995 13.2 8.79995Z" fill="#0052BD" stroke="#0052BD" stroke-width="0.5"/>
<path d="M12.4 6.8H9.2C8.97909 6.8 8.8 6.62091 8.8 6.4C8.8 6.17909 8.97909 6 9.2 6H12.4C12.6209 6 12.8 6.17909 12.8 6.4C12.8 6.62091 12.6209 6.8 12.4 6.8Z" fill="#0052BD" stroke="#0052BD" stroke-width="0.5"/>
<path fill-rule="evenodd" clip-rule="evenodd" d="M4.4 18H6C6.44183 18 6.8 17.6419 6.8 17.2V15.6C6.8 15.1582 6.44183 14.8 6 14.8H4.4C3.95817 14.8 3.6 15.1582 3.6 15.6V17.2C3.6 17.6419 3.95817 18 4.4 18ZM4.4 17.2V15.6H6V17.2H4.4Z" fill="#0052BD"/>
<path d="M4.4 15.6V15.35H4.15V15.6H4.4ZM4.4 17.2H4.15V17.45H4.4V17.2ZM6 15.6H6.25V15.35H6V15.6ZM6 17.2V17.45H6.25V17.2H6ZM6 17.75H4.4V18.25H6V17.75ZM6.55 17.2C6.55 17.5038 6.30376 17.75 6 17.75V18.25C6.5799 18.25 7.05 17.7799 7.05 17.2H6.55ZM6.55 15.6V17.2H7.05V15.6H6.55ZM6 15.05C6.30376 15.05 6.55 15.2963 6.55 15.6H7.05C7.05 15.0201 6.5799 14.55 6 14.55V15.05ZM4.4 15.05H6V14.55H4.4V15.05ZM3.85 15.6C3.85 15.2963 4.09624 15.05 4.4 15.05V14.55C3.8201 14.55 3.35 15.0201 3.35 15.6H3.85ZM3.85 17.2V15.6H3.35V17.2H3.85ZM4.4 17.75C4.09624 17.75 3.85 17.5038 3.85 17.2H3.35C3.35 17.7799 3.8201 18.25 4.4 18.25V17.75ZM4.15 15.6V17.2H4.65V15.6H4.15ZM6 15.35H4.4V15.85H6V15.35ZM6.25 17.2V15.6H5.75V17.2H6.25ZM4.4 17.45H6V16.95H4.4V17.45Z" fill="#0052BD"/>
<path d="M11.2 16H8.4C8.17909 16 8 15.8209 8 15.6C8 15.379 8.17909 15.2 8.4 15.2H11.2C11.4209 15.2 11.6 15.379 11.6 15.6C11.6 15.8209 11.4209 16 11.2 16Z" fill="#0052BD" stroke="#0052BD" stroke-width="0.5"/>
<path d="M9.6 17.6H8.4C8.17909 17.6 8 17.421 8 17.2C8 16.9791 8.17909 16.8 8.4 16.8H9.6C9.82091 16.8 10 16.9791 10 17.2C10 17.421 9.82091 17.6 9.6 17.6Z" fill="#0052BD" stroke="#0052BD" stroke-width="0.5"/>
<path d="M12.4 17.6H11.2C10.9791 17.6 10.8 17.421 10.8 17.2C10.8 16.9791 10.9791 16.8 11.2 16.8H12.4C12.6209 16.8 12.8 16.9791 12.8 17.2C12.8 17.421 12.6209 17.6 12.4 17.6Z" fill="#0052BD" stroke="#0052BD" stroke-width="0.5"/>
</svg>
