<svg width="21" height="21" viewBox="0 0 21 21" fill="none" xmlns="http://www.w3.org/2000/svg">
<path fill-rule="evenodd" clip-rule="evenodd" d="M2.17942 14.5042C-0.351219 9.38419 0.816769 6.20359 2.33515 4.92359C3.60361 3.94069 2.54423 2.10001 2.33154 1.73046C2.30922 1.69167 2.29622 1.66909 2.29622 1.66541C2.14049 1.47147 2.29622 1.19995 2.52982 1.19995H9.45988C9.69348 1.19995 9.81028 1.47147 9.69348 1.66541C9.65455 1.66541 8.25296 3.83753 9.61561 4.8848C9.62113 4.8958 9.64621 4.92238 9.6864 4.96499L9.68642 4.96501L9.68643 4.96502C9.92984 5.22305 10.7275 6.06867 11.0951 7.59995V7.63874C11.2119 8.06541 11.2897 8.56965 11.2897 9.15147H17.519C17.7915 9.15147 18.0251 9.30662 18.1419 9.53934C18.334 9.95399 18.1049 10.185 17.8226 10.4697C17.7616 10.5312 17.6981 10.5953 17.6358 10.6642C18.5702 10.6642 19.271 11.0133 19.6214 11.6727C20.4 13.069 19.5435 15.7454 17.0907 19.6242C16.8182 20.0896 16.3121 20.3612 15.767 20.3612H11.7569C11.2119 20.3612 10.7057 20.0896 10.4332 19.6242C9.69348 18.4606 9.10948 17.4133 8.68122 16.4824C8.13616 17.6848 8.01936 18.5769 8.36976 18.8484H9.07055C9.96601 18.8484 10.0049 20.4 9.07055 20.4H2.84128C1.94582 20.4 1.90689 18.8484 2.84128 18.8484H3.58101C3.65887 18.8096 3.69781 18.7321 3.73674 18.6157C3.97447 17.6683 2.84943 15.6879 2.35152 14.8114L2.3515 14.8114L2.35144 14.8113C2.27859 14.6831 2.21918 14.5785 2.17942 14.5042ZM2.77299 13.7673C2.76664 13.9327 2.75981 14.1108 2.72448 14.3103C2.93851 14.6941 3.04665 14.8786 3.15885 15.0701L3.15888 15.0702L3.15891 15.0702L3.15891 15.0702L3.15892 15.0702C3.2508 15.227 3.34541 15.3885 3.50314 15.6678C3.52235 15.5785 3.52893 15.4504 3.53672 15.2984C3.5763 14.5265 3.64738 13.1402 5.56659 13.1078C5.99485 13.1078 6.30631 13.1078 6.65671 12.7587C7.00711 12.4096 7.00711 12.0993 7.00711 11.6727C7.04604 10.2763 7.78576 9.6945 9.03162 9.65571C9.45988 9.65571 9.77134 9.65571 10.1217 9.30662C10.4721 8.95753 10.4721 8.64722 10.4721 8.22056V8.22055C10.4721 8.0654 10.4721 7.91025 10.5111 7.7551C10.3553 7.05692 10.0828 6.55268 9.84921 6.1648C9.73241 6.39753 9.73241 6.63025 9.73241 6.90177C9.69348 8.29813 8.95375 8.87995 7.7079 8.91874C7.27964 8.91874 6.96817 8.91874 6.61778 9.26783C6.26738 9.61692 6.26738 9.92722 6.26738 10.3539C6.22845 11.5951 5.64445 12.3321 4.24287 12.3709C3.81461 12.3709 3.50314 12.3709 3.15275 12.72C2.79968 13.0717 2.78763 13.3857 2.77299 13.7673ZM9.18735 19.7406C9.18735 19.7793 9.14842 19.8569 9.07055 19.8569H2.84128C2.80235 19.8569 2.72448 19.8181 2.72448 19.7406C2.72448 19.722 2.72349 19.7014 2.72246 19.68C2.71701 19.5672 2.7104 19.4303 2.84128 19.4303H3.61994H8.29189H9.07055C9.20143 19.4303 9.19482 19.5672 9.18938 19.68V19.68C9.18834 19.7014 9.18735 19.722 9.18735 19.7406ZM4.24287 18.8484H7.7079C7.30752 17.7847 7.98084 16.5536 8.79057 15.0731C9.63436 13.5303 10.6263 11.7166 10.7057 9.53934C10.1607 10.2375 9.53775 10.2375 9.07055 10.2375C8.64229 10.2375 8.33083 10.2375 7.98043 10.5866C7.5911 10.9357 7.5911 11.246 7.5911 11.6727C7.55217 13.069 6.81244 13.6509 5.56659 13.6896C5.13833 13.6896 4.82686 13.6896 4.47647 14.0387C4.13417 14.3998 4.1251 14.7609 4.11535 15.1488C4.10626 15.511 4.09657 15.8965 3.81461 16.3272C4.165 17.1418 4.47647 18.1115 4.2818 18.7709C4.2818 18.7709 4.24287 18.8096 4.24287 18.8484ZM19.1542 11.983C19.6214 12.7975 19.5435 14.7757 16.6625 19.3527C16.4678 19.6242 16.1563 19.8181 15.8059 19.8181H11.7959C11.4455 19.8181 11.134 19.663 10.9393 19.3527C10.0828 18.0339 9.45988 16.8315 8.99269 15.823C9.07623 15.6635 9.17719 15.4829 9.28957 15.2818L9.28961 15.2818L9.28969 15.2816L9.28973 15.2816C9.80586 14.3584 10.5627 13.0046 10.9783 11.2848C12.4862 11.2848 13.6982 11.2724 14.6772 11.2623H14.6773C18.2733 11.2254 18.7258 11.2208 19.1542 11.983ZM17.6747 9.84965V9.77207C17.6586 9.77207 17.6492 9.76542 17.6381 9.75762C17.6224 9.74659 17.6035 9.73328 17.5579 9.73328H11.2508C11.2508 9.94624 11.2141 10.1775 11.1785 10.4019C11.1623 10.5045 11.1462 10.6056 11.134 10.703H16.8571L17.6747 9.84965ZM9.49881 5.62177C9.18735 6.04844 9.18735 6.4751 9.18735 6.86298C9.18735 7.28965 9.18735 7.59995 8.79802 7.94904C8.44762 8.29813 8.13616 8.29813 7.7079 8.29813C7.2407 8.29813 6.73458 8.33692 6.22845 8.84116C5.70845 9.35922 5.69962 9.84407 5.6914 10.2957C5.68423 10.6894 5.67752 11.0579 5.33299 11.4012C4.98259 11.7503 4.67113 11.7503 4.24287 11.7503C2.99701 11.789 2.37409 12.4484 2.25729 13.263C1.98476 12.6812 1.79009 12.1381 1.63436 11.6339C1.98476 11.0521 2.52982 11.0521 2.91915 11.0521C4.165 11.0133 4.90473 10.4315 4.94366 9.0351C4.94366 8.60844 4.94366 8.29813 5.29406 7.94904C5.64445 7.59995 5.95592 7.59995 6.38418 7.59995C7.63003 7.56116 8.36976 6.97935 8.40869 5.58298C8.40869 5.23389 8.40869 4.96238 8.64229 4.65207C8.82132 4.98332 8.98355 5.13044 9.17313 5.30237C9.27214 5.39215 9.3786 5.4887 9.49881 5.62177ZM2.99701 1.82056C3.54207 2.82904 3.9314 4.45813 2.68555 5.38904C2.68333 5.39125 2.67956 5.39482 2.67435 5.39975C2.49675 5.56778 0.645414 7.31934 1.4397 10.9745C1.94582 10.509 2.45195 10.4703 2.88021 10.4703C2.91316 10.4673 2.94541 10.4645 2.97704 10.4618C3.35662 10.4294 3.64689 10.4046 3.97034 10.0824C4.32073 9.73328 4.32073 9.42298 4.32073 8.99631C4.35967 7.59995 5.09939 7.01813 6.34525 6.97934C6.77351 6.97934 7.08497 6.97935 7.43537 6.63025C7.77989 6.28701 7.7866 5.91853 7.79377 5.5248C7.802 5.07316 7.81083 4.58832 8.33083 4.07025L8.40869 3.99268C8.29189 3.25571 8.56442 2.44116 8.87589 1.82056H2.99701Z" fill="#0052BD"/>
<path d="M2.33515 4.92359L2.1819 4.7258L2.17402 4.73244L2.33515 4.92359ZM2.17942 14.5042L1.95519 14.615L1.95902 14.6222L2.17942 14.5042ZM2.33154 1.73046L2.54822 1.60575L2.54822 1.60575L2.33154 1.73046ZM2.29622 1.66541H2.54622V1.57745L2.49115 1.50888L2.29622 1.66541ZM9.69348 1.66541V1.91541H9.83475L9.90764 1.79438L9.69348 1.66541ZM9.61561 4.8848L9.83905 4.77266L9.81336 4.72148L9.76796 4.68658L9.61561 4.8848ZM9.6864 4.96499L9.50446 5.13661L9.50962 5.14176L9.6864 4.96499ZM9.68642 4.96501L9.87327 4.79892L9.86839 4.79343L9.8632 4.78823L9.68642 4.96501ZM9.68643 4.96502L9.49949 5.13118L9.50457 5.13656L9.68643 4.96502ZM11.0951 7.59995H11.3451V7.57037L11.3382 7.5416L11.0951 7.59995ZM11.0951 7.63874H10.8451V7.67234L10.8539 7.70475L11.0951 7.63874ZM11.2897 9.15147H11.0397V9.40147H11.2897V9.15147ZM18.1419 9.53934L18.3689 9.43421L18.3654 9.42721L18.1419 9.53934ZM17.8226 10.4697L17.645 10.2937L17.8226 10.4697ZM17.6358 10.6642L17.4503 10.4966L17.073 10.9142H17.6358V10.6642ZM19.6214 11.6727L19.4006 11.79L19.403 11.7944L19.6214 11.6727ZM17.0907 19.6242L16.8793 19.4905L16.875 19.4979L17.0907 19.6242ZM10.4332 19.6242L10.6491 19.4978L10.6442 19.4901L10.4332 19.6242ZM8.68122 16.4824L8.90834 16.3779L8.67954 15.8806L8.45352 16.3792L8.68122 16.4824ZM8.36976 18.8484L8.21663 19.0461L8.28423 19.0984H8.36976V18.8484ZM3.58101 18.8484V19.0984H3.63983L3.69248 19.0722L3.58101 18.8484ZM3.73674 18.6157L3.97382 18.695L3.97688 18.6859L3.97922 18.6766L3.73674 18.6157ZM2.35152 14.8114L2.5689 14.6879L2.56746 14.6854L2.35152 14.8114ZM2.3515 14.8114L2.1334 14.9337L2.13555 14.9373L2.3515 14.8114ZM2.35144 14.8113L2.5695 14.689L2.56881 14.6878L2.35144 14.8113ZM2.72448 14.3103L2.47831 14.2667L2.46279 14.3543L2.50614 14.432L2.72448 14.3103ZM2.77299 13.7673L3.02281 13.7769L2.77299 13.7673ZM3.15885 15.0701L3.37559 14.9455L3.37455 14.9437L3.15885 15.0701ZM3.15888 15.0702L2.94213 15.1948L2.94415 15.1982L3.15888 15.0702ZM3.15891 15.0702L3.37486 14.9442L3.37364 14.9422L3.15891 15.0702ZM3.15891 15.0702L2.94295 15.1962L2.94454 15.1988L3.15891 15.0702ZM3.15892 15.0702L3.37463 14.9438L3.37329 14.9416L3.15892 15.0702ZM3.50314 15.6678L3.28544 15.7907L3.60912 16.364L3.74755 15.7204L3.50314 15.6678ZM3.53672 15.2984L3.78639 15.3112V15.3112L3.53672 15.2984ZM5.56659 13.1078V12.8578L5.56237 12.8579L5.56659 13.1078ZM6.65671 12.7587L6.83316 12.9358L6.83316 12.9358L6.65671 12.7587ZM7.00711 11.6727L6.75711 11.6657V11.6727H7.00711ZM9.03162 9.65571V9.40559L9.02384 9.40583L9.03162 9.65571ZM10.1217 9.30662L9.94529 9.12951L9.94529 9.12951L10.1217 9.30662ZM10.5111 7.7551L10.7536 7.81595L10.768 7.75849L10.7551 7.70068L10.5111 7.7551ZM9.84921 6.1648L10.0634 6.03582L9.82929 5.64714L9.62577 6.05266L9.84921 6.1648ZM9.73241 6.90177L9.98241 6.90874V6.90177H9.73241ZM7.7079 8.91874V9.16886L7.71568 9.16862L7.7079 8.91874ZM6.61778 9.26783L6.79422 9.44494V9.44494L6.61778 9.26783ZM6.26738 10.3539L6.51738 10.3617V10.3539H6.26738ZM4.24287 12.3709V12.621L4.24978 12.6208L4.24287 12.3709ZM3.15275 12.72L3.32919 12.8971H3.32919L3.15275 12.72ZM2.72246 19.68L2.47275 19.6921L2.47275 19.6921L2.72246 19.68ZM9.18938 19.68L8.93938 19.668V19.68H9.18938ZM9.18938 19.68L9.43938 19.6921V19.68H9.18938ZM7.7079 18.8484V19.0984H8.06912L7.94187 18.7604L7.7079 18.8484ZM4.24287 18.8484H3.99287V19.0984H4.24287V18.8484ZM8.79057 15.0731L8.57123 14.9531L8.79057 15.0731ZM10.7057 9.53934L10.9556 9.54846L10.9837 8.777L10.5087 9.3855L10.7057 9.53934ZM7.98043 10.5866L8.14756 10.773L8.15688 10.7637L7.98043 10.5866ZM7.5911 11.6727L7.8411 11.6796V11.6727H7.5911ZM5.56659 13.6896V13.9398L5.57437 13.9395L5.56659 13.6896ZM4.47647 14.0387L4.29995 13.8616L4.29503 13.8667L4.47647 14.0387ZM4.11535 15.1488L4.36528 15.1551L4.11535 15.1488ZM3.81461 16.3272L3.60544 16.1903L3.53189 16.3027L3.58495 16.426L3.81461 16.3272ZM4.2818 18.7709L4.45825 18.948L4.50349 18.9029L4.52157 18.8416L4.2818 18.7709ZM16.6625 19.3527L16.8657 19.4983L16.87 19.4922L16.874 19.4859L16.6625 19.3527ZM19.1542 11.983L18.9362 12.1055L18.9373 12.1074L19.1542 11.983ZM10.9393 19.3527L11.1511 19.2198L11.149 19.2165L10.9393 19.3527ZM8.99269 15.823L8.77122 15.707L8.71402 15.8162L8.76584 15.9281L8.99269 15.823ZM9.28957 15.2818L9.07359 15.1558L9.07136 15.1598L9.28957 15.2818ZM9.28961 15.2818L9.50559 15.4077L9.50751 15.4043L9.28961 15.2818ZM9.28969 15.2816L9.50759 15.4042L9.50823 15.403L9.28969 15.2816ZM9.28973 15.2816L9.07152 15.1596L9.0712 15.1601L9.28973 15.2816ZM10.9783 11.2848V11.0348H10.7815L10.7353 11.2261L10.9783 11.2848ZM14.6772 11.2623V11.0123L14.6746 11.0123L14.6772 11.2623ZM14.6773 11.2623V11.5123L14.6798 11.5123L14.6773 11.2623ZM17.6747 9.77207H17.9247V9.52207H17.6747V9.77207ZM17.6747 9.84965L17.8552 10.0226L17.9247 9.95008V9.84965H17.6747ZM17.6381 9.75762L17.7821 9.55325L17.7821 9.55324L17.6381 9.75762ZM11.2508 9.73328V9.48328H11.0008V9.73328H11.2508ZM11.1785 10.4019L10.9316 10.3627L11.1785 10.4019ZM11.134 10.703L10.8859 10.6719L10.8507 10.953H11.134V10.703ZM16.8571 10.703V10.953H16.9638L17.0377 10.8759L16.8571 10.703ZM9.49881 5.62177L9.70074 5.76917L9.82057 5.60501L9.68433 5.45418L9.49881 5.62177ZM8.79802 7.94904L8.63089 7.76265L8.62157 7.77194L8.79802 7.94904ZM6.22845 8.84116L6.40489 9.01827L6.22845 8.84116ZM5.6914 10.2957L5.44144 10.2912L5.6914 10.2957ZM5.33299 11.4012L5.15654 11.2241V11.2241L5.33299 11.4012ZM4.24287 11.7503V11.5001L4.23509 11.5004L4.24287 11.7503ZM2.25729 13.263L2.03089 13.369L2.38595 14.127L2.50476 13.2985L2.25729 13.263ZM1.63436 11.6339L1.4202 11.5049L1.36248 11.6008L1.39549 11.7077L1.63436 11.6339ZM2.91915 11.0521V11.3022L2.92693 11.302L2.91915 11.0521ZM4.94366 9.0351L5.19366 9.04207V9.0351H4.94366ZM5.29406 7.94904L5.4705 8.12615L5.29406 7.94904ZM6.38418 7.59995V7.85007L6.39196 7.84983L6.38418 7.59995ZM8.40869 5.58298L8.65869 5.58995V5.58298H8.40869ZM8.64229 4.65207L8.86222 4.5332L8.67693 4.19038L8.44256 4.50171L8.64229 4.65207ZM9.17313 5.30237L9.00519 5.48756V5.48756L9.17313 5.30237ZM2.68555 5.38904L2.53591 5.18877L2.52169 5.1994L2.50911 5.21193L2.68555 5.38904ZM2.99701 1.82056V1.57056H2.57772L2.77708 1.93943L2.99701 1.82056ZM2.67435 5.39975L2.50253 5.21815L2.50253 5.21815L2.67435 5.39975ZM1.4397 10.9745L1.1954 11.0276L1.28799 11.4537L1.60892 11.1585L1.4397 10.9745ZM2.88021 10.4703V10.7203H2.89151L2.90277 10.7192L2.88021 10.4703ZM2.97704 10.4618L2.99831 10.7109L2.99831 10.7109L2.97704 10.4618ZM3.97034 10.0824L4.14678 10.2595L4.14678 10.2595L3.97034 10.0824ZM4.32073 8.99631L4.07073 8.98934V8.99631H4.32073ZM6.34525 6.97934V6.72922L6.33747 6.72947L6.34525 6.97934ZM7.43537 6.63025L7.25892 6.45315L7.43537 6.63025ZM7.79377 5.5248L7.54382 5.52025L7.79377 5.5248ZM8.33083 4.07025L8.50727 4.24736L8.50727 4.24736L8.33083 4.07025ZM8.40869 3.99268L8.58514 4.16978L8.6756 4.07966L8.65561 3.95355L8.40869 3.99268ZM8.87589 1.82056L9.09933 1.93269L9.28107 1.57056H8.87589V1.82056ZM2.17402 4.73244C0.53676 6.11266 -0.605901 9.43313 1.9553 14.615L2.40354 14.3934C-0.0965366 9.33526 1.09678 6.29452 2.49629 5.11473L2.17402 4.73244ZM2.11486 1.85516C2.22077 2.03917 2.52022 2.56171 2.64417 3.14867C2.76761 3.73322 2.70763 4.31869 2.18203 4.72597L2.48828 5.1212C3.23113 4.54558 3.27569 3.71926 3.13338 3.04536C2.99159 2.37388 2.65501 1.7913 2.54822 1.60575L2.11486 1.85516ZM2.04622 1.66541C2.04622 1.69745 2.05249 1.72202 2.05482 1.73076C2.0579 1.7423 2.06121 1.75144 2.06324 1.75678C2.06732 1.76745 2.07139 1.77608 2.07353 1.7805C2.0781 1.78996 2.08305 1.79908 2.08658 1.80547C2.094 1.81894 2.10424 1.8367 2.11486 1.85516L2.54822 1.60575C2.53652 1.58543 2.52909 1.57251 2.52444 1.56406C2.52193 1.5595 2.52223 1.55987 2.52367 1.56284C2.52424 1.56402 2.52713 1.56997 2.5304 1.57856C2.53204 1.58285 2.53505 1.59109 2.53792 1.60188C2.53941 1.60743 2.54129 1.61527 2.54287 1.62479C2.54439 1.6339 2.54622 1.64802 2.54622 1.66541H2.04622ZM2.52982 0.949951C2.31202 0.949951 2.1339 1.07673 2.04597 1.24317C1.9557 1.41405 1.95459 1.63925 2.10129 1.82193L2.49115 1.50888C2.48397 1.49993 2.48368 1.49513 2.48357 1.4936C2.48337 1.49063 2.48388 1.48466 2.48807 1.47673C2.49748 1.45893 2.51402 1.44995 2.52982 1.44995V0.949951ZM9.45988 0.949951H2.52982V1.44995H9.45988V0.949951ZM9.90764 1.79438C10.0121 1.62093 10.0113 1.41543 9.93386 1.2526C9.85432 1.08531 9.68574 0.949951 9.45988 0.949951V1.44995C9.46794 1.44995 9.47018 1.45174 9.47097 1.45227C9.47293 1.4536 9.47777 1.45777 9.4823 1.4673C9.49248 1.48871 9.49165 1.51594 9.47932 1.53643L9.90764 1.79438ZM9.76796 4.68658C9.2108 4.25837 9.19361 3.59147 9.37004 2.94853C9.45647 2.63354 9.58481 2.34636 9.69458 2.13744C9.7493 2.03329 9.79833 1.95062 9.83353 1.89571C9.85138 1.86786 9.86426 1.84937 9.87153 1.83964C9.87566 1.83411 9.87521 1.83513 9.87124 1.83951C9.86985 1.84105 9.86245 1.84926 9.85069 1.85906C9.84504 1.86377 9.83263 1.87371 9.81489 1.88369C9.80291 1.89043 9.75775 1.91541 9.69348 1.91541V1.41541C9.6286 1.41541 9.58266 1.44065 9.56974 1.44791C9.55107 1.45842 9.53756 1.46915 9.53065 1.47491C9.51637 1.4868 9.50583 1.49815 9.50068 1.50382C9.48921 1.51649 9.47885 1.52984 9.47091 1.54047C9.45403 1.56307 9.43414 1.59227 9.4126 1.62586C9.36902 1.69383 9.31281 1.78904 9.25195 1.90489C9.13055 2.13596 8.98636 2.45727 8.88786 2.81622C8.69442 3.52116 8.65778 4.46396 9.46327 5.08302L9.76796 4.68658ZM9.86826 4.79344C9.8581 4.78268 9.84943 4.77348 9.84181 4.76533C9.83416 4.75714 9.82839 4.75087 9.82403 4.74602C9.81935 4.74081 9.8181 4.73922 9.81874 4.74002C9.81913 4.7405 9.82115 4.74304 9.82399 4.74713C9.82547 4.74927 9.82754 4.75236 9.82994 4.75627C9.83229 4.76009 9.83553 4.76565 9.83905 4.77266L9.39218 4.99694C9.40595 5.02439 9.42252 5.04512 9.42796 5.05193C9.4361 5.06214 9.44468 5.07192 9.45198 5.08006C9.46651 5.09624 9.48533 5.11617 9.50454 5.13653L9.86826 4.79344ZM9.8632 4.78823L9.86318 4.78821L9.50962 5.14176L9.50965 5.14179L9.8632 4.78823ZM9.87328 4.79893L9.87327 4.79892L9.49957 5.1311L9.49958 5.13111L9.87328 4.79893ZM11.3382 7.5416C10.9556 5.94775 10.1232 5.06368 9.86828 4.79347L9.50457 5.13656C9.73649 5.38242 10.4994 6.1896 10.852 7.6583L11.3382 7.5416ZM11.3451 7.63874V7.59995H10.8451V7.63874H11.3451ZM11.5397 9.15147C11.5397 8.54711 11.4588 8.02068 11.3362 7.57273L10.8539 7.70475C10.9649 8.11014 11.0397 8.59219 11.0397 9.15147H11.5397ZM17.519 8.90147H11.2897V9.40147H17.519V8.90147ZM18.3654 9.42721C18.2083 9.11429 17.8908 8.90147 17.519 8.90147V9.40147C17.6922 9.40147 17.8419 9.49895 17.9185 9.65148L18.3654 9.42721ZM18.0001 10.6458C18.1323 10.5124 18.2956 10.3519 18.3862 10.16C18.489 9.9423 18.4933 9.70305 18.3688 9.43426L17.9151 9.64443C17.9827 9.79028 17.9684 9.87388 17.9341 9.94651C17.8876 10.045 17.7952 10.1423 17.645 10.2937L18.0001 10.6458ZM17.8213 10.8318C17.8791 10.7678 17.9385 10.7078 18.0001 10.6458L17.645 10.2937C17.5846 10.3547 17.5171 10.4227 17.4503 10.4966L17.8213 10.8318ZM19.8421 11.5554C19.4358 10.7907 18.6325 10.4142 17.6358 10.4142V10.9142C18.5079 10.9142 19.1061 11.2359 19.4006 11.79L19.8421 11.5554ZM17.302 19.7578C18.5335 17.8104 19.3734 16.151 19.806 14.7934C20.2356 13.4455 20.2807 12.3417 19.8397 11.5509L19.403 11.7944C19.7407 12.4 19.7468 13.3326 19.3296 14.6416C18.9155 15.941 18.1007 17.5592 16.8794 19.4906L17.302 19.7578ZM15.767 20.6112C16.3943 20.6112 16.9859 20.2981 17.3065 19.7505L16.875 19.4979C16.6505 19.8812 16.2299 20.1112 15.767 20.1112V20.6112ZM11.7569 20.6112H15.767V20.1112H11.7569V20.6112ZM10.2175 19.7505C10.5381 20.2981 11.1297 20.6112 11.7569 20.6112V20.1112C11.2941 20.1112 10.8734 19.8812 10.6489 19.4979L10.2175 19.7505ZM8.4541 16.5869C8.88836 17.5308 9.47838 18.5882 10.2222 19.7583L10.6442 19.4901C9.90858 18.3329 9.33061 17.2958 8.90834 16.3779L8.4541 16.5869ZM8.52289 18.6508C8.49594 18.6299 8.46027 18.584 8.43852 18.4814C8.41658 18.378 8.41299 18.234 8.43756 18.0471C8.48666 17.6735 8.64176 17.175 8.90892 16.5856L8.45352 16.3792C8.17562 16.9922 7.99979 17.5409 7.94183 17.9819C7.91286 18.2023 7.91171 18.4074 7.94939 18.5851C7.98725 18.7637 8.06838 18.9312 8.21663 19.0461L8.52289 18.6508ZM9.07055 18.5984H8.36976V19.0984H9.07055V18.5984ZM9.07055 20.65C9.38178 20.65 9.6269 20.517 9.7876 20.3115C9.94282 20.1131 10.0097 19.8605 10.0067 19.6211C10.0037 19.3815 9.93054 19.1315 9.77585 18.9358C9.61632 18.734 9.37536 18.5984 9.07055 18.5984V19.0984C9.21347 19.0984 9.31318 19.1568 9.38359 19.2459C9.45885 19.3411 9.5049 19.479 9.50676 19.6273C9.50863 19.7757 9.46604 19.9111 9.39374 20.0035C9.32693 20.089 9.22652 20.15 9.07055 20.15V20.65ZM2.84128 20.65H9.07055V20.15H2.84128V20.65ZM2.84128 18.5984C2.53005 18.5984 2.28493 18.7314 2.12424 18.9368C1.96902 19.1353 1.9021 19.3879 1.90511 19.6273C1.90811 19.8669 1.9813 20.1169 2.13598 20.3126C2.29552 20.5144 2.53647 20.65 2.84128 20.65V20.15C2.69836 20.15 2.59865 20.0916 2.52824 20.0025C2.45298 19.9073 2.40693 19.7694 2.40507 19.6211C2.40321 19.4727 2.44579 19.3373 2.51809 19.2449C2.58491 19.1594 2.68531 19.0984 2.84128 19.0984V18.5984ZM3.58101 18.5984H2.84128V19.0984H3.58101V18.5984ZM3.49966 18.5364C3.48173 18.59 3.46976 18.6154 3.4617 18.6283C3.45851 18.6334 3.45773 18.6335 3.45992 18.6314C3.46247 18.629 3.46602 18.6264 3.46954 18.6247L3.69248 19.0722C3.87033 18.9836 3.9349 18.8114 3.97382 18.695L3.49966 18.5364ZM2.13414 14.9349C2.38373 15.3742 2.78297 16.0774 3.09066 16.7865C3.24451 17.141 3.37237 17.4901 3.44751 17.8032C3.52396 18.1217 3.53909 18.3762 3.49426 18.5549L3.97922 18.6766C4.05326 18.3815 4.0169 18.0332 3.93371 17.6865C3.84921 17.3344 3.70927 16.956 3.54933 16.5875C3.22946 15.8503 2.81722 15.1251 2.56889 14.6879L2.13414 14.9349ZM2.13555 14.9373L2.13557 14.9374L2.56746 14.6854L2.56744 14.6854L2.13555 14.9373ZM2.13338 14.9336L2.13344 14.9337L2.56956 14.6891L2.5695 14.689L2.13338 14.9336ZM1.95902 14.6222C2.00062 14.6999 2.06194 14.8078 2.13407 14.9348L2.56881 14.6878C2.49524 14.5583 2.43773 14.457 2.39983 14.3862L1.95902 14.6222ZM2.97065 14.3539C3.00934 14.1354 3.01649 13.9414 3.02281 13.7769L2.52317 13.7577C2.51679 13.924 2.51027 14.0862 2.47831 14.2667L2.97065 14.3539ZM3.37455 14.9437C3.26286 14.7531 3.15569 14.5702 2.94283 14.1885L2.50614 14.432C2.72134 14.8179 2.83043 15.0041 2.94316 15.1965L3.37455 14.9437ZM3.37561 14.9455L3.37558 14.9455L2.94213 15.1947L2.94216 15.1948L3.37561 14.9455ZM3.37364 14.9422L3.37362 14.9421L2.94415 15.1982L2.94417 15.1982L3.37364 14.9422ZM3.37486 14.9442L3.37485 14.9442L2.94296 15.1962L2.94297 15.1962L3.37486 14.9442ZM3.37329 14.9416L3.37329 14.9416L2.94454 15.1988L2.94455 15.1988L3.37329 14.9416ZM3.72084 15.5449C3.56215 15.2638 3.46676 15.1011 3.37462 14.9438L2.94322 15.1966C3.03483 15.3529 3.12868 15.5131 3.28544 15.7907L3.72084 15.5449ZM3.28705 15.2856C3.27879 15.4466 3.27268 15.5504 3.25873 15.6153L3.74755 15.7204C3.77203 15.6066 3.77906 15.4541 3.78639 15.3112L3.28705 15.2856ZM5.56237 12.8579C4.53222 12.8753 3.94578 13.2637 3.63123 13.7992C3.33289 14.3071 3.30637 14.9088 3.28705 15.2856L3.78639 15.3112C3.80665 14.9161 3.83546 14.4387 4.06236 14.0524C4.27305 13.6937 4.68175 13.3728 5.57081 13.3578L5.56237 12.8579ZM6.48026 12.5816C6.33484 12.7265 6.20874 12.7896 6.08043 12.8216C5.94049 12.8565 5.78776 12.8578 5.56659 12.8578V13.3578C5.77368 13.3578 5.99081 13.3592 6.20127 13.3068C6.42335 13.2515 6.62818 13.1401 6.83316 12.9358L6.48026 12.5816ZM6.75711 11.6727C6.75711 11.8931 6.75571 12.0449 6.72082 12.184C6.68887 12.3113 6.62569 12.4367 6.48026 12.5816L6.83316 12.9358C7.03813 12.7316 7.15015 12.5274 7.20579 12.3056C7.2585 12.0956 7.25711 11.8789 7.25711 11.6727H6.75711ZM9.02384 9.40583C8.36752 9.42626 7.8021 9.59072 7.39552 9.97296C6.98611 10.3579 6.77784 10.9256 6.7572 11.6657L7.25701 11.6796C7.27531 11.0234 7.45636 10.602 7.73801 10.3372C8.0225 10.0698 8.44987 9.92394 9.0394 9.90559L9.02384 9.40583ZM9.94529 9.12951C9.79987 9.27439 9.67377 9.33752 9.54546 9.36948C9.40552 9.40434 9.25279 9.40571 9.03162 9.40571V9.90571C9.23871 9.90571 9.45584 9.90708 9.6663 9.85466C9.88838 9.79935 10.0932 9.68794 10.2982 9.48372L9.94529 9.12951ZM10.2221 8.22056C10.2221 8.44098 10.2207 8.59279 10.1859 8.73183C10.1539 8.85919 10.0907 8.98463 9.94529 9.12951L10.2982 9.48372C10.5032 9.27952 10.6152 9.07526 10.6708 8.85353C10.7235 8.64348 10.7221 8.4268 10.7221 8.22056H10.2221ZM10.2221 8.22055V8.22056H10.7221V8.22055H10.2221ZM10.2686 7.69425C10.2209 7.88414 10.2221 8.07005 10.2221 8.22055H10.7221C10.7221 8.06074 10.7233 7.93637 10.7536 7.81595L10.2686 7.69425ZM9.63505 6.29378C9.86232 6.67115 10.1197 7.14892 10.2671 7.80953L10.7551 7.70068C10.591 6.96493 10.3033 6.4342 10.0634 6.03582L9.63505 6.29378ZM9.98241 6.90177C9.98241 6.62149 9.98648 6.44863 10.0726 6.27694L9.62577 6.05266C9.47834 6.34642 9.48241 6.63902 9.48241 6.90177H9.98241ZM7.71568 9.16862C8.372 9.14818 8.93742 8.98373 9.34399 8.60149C9.75341 8.21658 9.96168 7.64885 9.98231 6.90874L9.48251 6.8948C9.46421 7.55105 9.28315 7.97241 9.00151 8.2372C8.71702 8.50466 8.28965 8.65051 7.70012 8.66886L7.71568 9.16862ZM6.79422 9.44494C6.93964 9.30006 7.06574 9.23692 7.19406 9.20496C7.33399 9.17011 7.48673 9.16874 7.7079 9.16874V8.66874C7.50081 8.66874 7.28368 8.66737 7.07322 8.71979C6.85114 8.7751 6.64631 8.88651 6.44133 9.09072L6.79422 9.44494ZM6.51738 10.3539C6.51738 10.1335 6.51877 9.98166 6.55366 9.84262C6.58562 9.71526 6.6488 9.58982 6.79422 9.44494L6.44133 9.09072C6.23636 9.29493 6.12434 9.49919 6.0687 9.72092C6.01599 9.93097 6.01738 10.1476 6.01738 10.3539H6.51738ZM4.24978 12.6208C4.99202 12.6002 5.56139 12.393 5.94762 11.9852C6.33147 11.58 6.49673 11.0161 6.51726 10.3617L6.0175 10.3461C5.9991 10.9329 5.85289 11.3581 5.58461 11.6414C5.31872 11.9221 4.8953 12.1027 4.23595 12.121L4.24978 12.6208ZM3.32919 12.8971C3.47461 12.7522 3.60071 12.689 3.72903 12.6571C3.86896 12.6222 4.02169 12.6209 4.24287 12.6209V12.1209C4.03578 12.1209 3.81865 12.1195 3.60819 12.1719C3.3861 12.2272 3.18128 12.3386 2.9763 12.5428L3.32919 12.8971ZM3.02281 13.7769C3.03034 13.5805 3.03707 13.4376 3.07621 13.3016C3.11274 13.1747 3.18091 13.0448 3.32919 12.8971L2.9763 12.5428C2.77152 12.7469 2.65714 12.9499 2.59571 13.1633C2.5369 13.3676 2.53028 13.5725 2.52317 13.7577L3.02281 13.7769ZM9.07055 20.1069C9.20203 20.1069 9.29776 20.0387 9.35308 19.9698C9.402 19.9089 9.43735 19.826 9.43735 19.7406H8.93735C8.93735 19.7124 8.94346 19.6939 8.94654 19.6858C8.95032 19.6759 8.95559 19.6663 8.96322 19.6568C8.97961 19.6363 9.01693 19.6069 9.07055 19.6069V20.1069ZM2.84128 20.1069H9.07055V19.6069H2.84128V20.1069ZM2.47448 19.7406C2.47448 19.8727 2.54353 19.9684 2.61246 20.0233C2.67354 20.072 2.75627 20.1069 2.84128 20.1069V19.6069C2.8691 19.6069 2.88741 19.6129 2.89532 19.6159C2.90504 19.6196 2.91462 19.6248 2.9241 19.6323C2.94437 19.6485 2.97448 19.686 2.97448 19.7406H2.47448ZM2.47275 19.6921C2.47386 19.715 2.47448 19.7292 2.47448 19.7406H2.97448C2.97448 19.7148 2.97313 19.6879 2.97217 19.668L2.47275 19.6921ZM2.84128 19.1803C2.76304 19.1803 2.67893 19.2018 2.60763 19.2606C2.53916 19.3171 2.50659 19.3882 2.49065 19.4432C2.46258 19.5399 2.47066 19.6488 2.47275 19.6921L2.97217 19.668C2.97073 19.6382 2.96984 19.6174 2.97026 19.5992C2.97069 19.5802 2.97246 19.5769 2.97085 19.5825C2.96893 19.5891 2.95891 19.619 2.92584 19.6463C2.88995 19.6759 2.85408 19.6803 2.84128 19.6803V19.1803ZM3.61994 19.1803H2.84128V19.6803H3.61994V19.1803ZM8.29189 19.1803H3.61994V19.6803H8.29189V19.1803ZM9.07055 19.1803H8.29189V19.6803H9.07055V19.1803ZM9.43909 19.6921C9.44118 19.6488 9.44925 19.5399 9.42118 19.4432C9.40524 19.3882 9.37268 19.3171 9.3042 19.2606C9.23291 19.2018 9.14879 19.1803 9.07055 19.1803V19.6803C9.05775 19.6803 9.02189 19.6759 8.98599 19.6463C8.95292 19.619 8.9429 19.5891 8.94099 19.5825C8.93937 19.5769 8.94114 19.5802 8.94158 19.5992C8.942 19.6174 8.9411 19.6382 8.93967 19.668L9.43909 19.6921ZM9.43938 19.68V19.68H8.93938V19.68H9.43938ZM9.43735 19.7406C9.43735 19.7292 9.43798 19.715 9.43909 19.6921L8.93967 19.668C8.93871 19.6879 8.93735 19.7148 8.93735 19.7406H9.43735ZM7.7079 18.5984H4.24287V19.0984H7.7079V18.5984ZM8.57123 14.9531C8.16935 15.6879 7.7872 16.3852 7.55954 17.0343C7.33085 17.6863 7.24428 18.3264 7.47392 18.9365L7.94187 18.7604C7.77113 18.3068 7.82104 17.7994 8.03135 17.1998C8.24269 16.5973 8.60207 15.9387 9.00991 15.193L8.57123 14.9531ZM10.4559 9.53023C10.3789 11.6402 9.41822 13.4044 8.57123 14.9531L9.00991 15.193C9.8505 13.6561 10.8736 11.793 10.9556 9.54846L10.4559 9.53023ZM9.07055 10.4875C9.30119 10.4875 9.60968 10.489 9.93279 10.3891C10.2638 10.2868 10.5988 10.0826 10.9028 9.69319L10.5087 9.3855C10.2676 9.69431 10.0186 9.83921 9.7851 9.91141C9.54368 9.98605 9.30711 9.98753 9.07055 9.98753V10.4875ZM8.15688 10.7637C8.3023 10.6188 8.4284 10.5557 8.55671 10.5238C8.69665 10.4889 8.84938 10.4875 9.07055 10.4875V9.98753C8.86346 9.98753 8.64633 9.98615 8.43587 10.0386C8.21379 10.0939 8.00896 10.2053 7.80398 10.4095L8.15688 10.7637ZM7.8411 11.6727C7.8411 11.4516 7.84279 11.3033 7.88058 11.1677C7.9149 11.0446 7.98357 10.9196 8.14733 10.7728L7.81353 10.4005C7.58796 10.6027 7.46197 10.8074 7.39895 11.0334C7.33941 11.2469 7.3411 11.4671 7.3411 11.6727H7.8411ZM5.57437 13.9395C6.23069 13.9191 6.79611 13.7546 7.20268 13.3724C7.6121 12.9875 7.82037 12.4198 7.841 11.6796L7.3412 11.6657C7.3229 12.322 7.14184 12.7433 6.8602 13.0081C6.57571 13.2756 6.14834 13.4214 5.55881 13.4398L5.57437 13.9395ZM4.65291 14.2158C4.79833 14.071 4.92443 14.0078 5.05275 13.9759C5.19268 13.941 5.34541 13.9396 5.56659 13.9396V13.4396C5.3595 13.4396 5.14237 13.4383 4.93191 13.4907C4.70982 13.546 4.505 13.6574 4.30002 13.8616L4.65291 14.2158ZM4.36528 15.1551C4.37501 14.7675 4.38698 14.4965 4.6579 14.2107L4.29503 13.8667C3.88135 14.3031 3.87519 14.7543 3.86543 15.1425L4.36528 15.1551ZM4.02377 16.4641C4.3476 15.9695 4.35611 15.52 4.36528 15.1551L3.86543 15.1425C3.85641 15.5019 3.84555 15.8235 3.60544 16.1903L4.02377 16.4641ZM4.52157 18.8416C4.63684 18.4512 4.59726 17.994 4.49634 17.5516C4.39424 17.1041 4.22234 16.6424 4.04426 16.2284L3.58495 16.426C3.75726 16.8266 3.91629 17.257 4.00886 17.6628C4.1026 18.0737 4.12143 18.4311 4.04203 18.7001L4.52157 18.8416ZM4.49287 18.8484C4.49287 18.8796 4.48531 18.9022 4.48095 18.9131C4.47638 18.9245 4.47186 18.9315 4.47011 18.9341C4.46809 18.9372 4.46643 18.9392 4.46523 18.9406C4.46452 18.9414 4.46365 18.9424 4.46257 18.9435C4.46202 18.9441 4.4614 18.9448 4.46069 18.9455C4.46033 18.9459 4.45995 18.9462 4.45955 18.9467C4.45934 18.9469 4.45913 18.9471 4.45892 18.9473C4.45881 18.9474 4.4587 18.9475 4.45859 18.9476C4.45853 18.9477 4.45848 18.9477 4.45842 18.9478C4.45839 18.9478 4.45835 18.9479 4.45833 18.9479C4.45829 18.9479 4.45825 18.948 4.2818 18.7709C4.10535 18.5938 4.10531 18.5938 4.10527 18.5938C4.10525 18.5939 4.10521 18.5939 4.10518 18.5939C4.10512 18.594 4.10506 18.594 4.105 18.5941C4.10488 18.5942 4.10475 18.5944 4.10463 18.5945C4.10437 18.5947 4.10411 18.595 4.10383 18.5953C4.10328 18.5958 4.10268 18.5965 4.10204 18.5971C4.10076 18.5984 4.0993 18.6 4.09768 18.6017C4.09447 18.6051 4.09057 18.6094 4.0862 18.6145C4.0777 18.6244 4.06632 18.6385 4.05456 18.6561C4.03653 18.683 3.99287 18.7536 3.99287 18.8484H4.49287ZM16.874 19.4859C18.3209 17.1873 19.0746 15.525 19.405 14.3232C19.7343 13.1252 19.6522 12.3488 19.371 11.8586L18.9373 12.1074C19.1233 12.4317 19.236 13.0516 18.9229 14.1907C18.6108 15.3259 17.8851 16.9411 16.4509 19.2195L16.874 19.4859ZM15.8059 20.0681C16.2512 20.0681 16.633 19.8228 16.8657 19.4983L16.4593 19.207C16.3026 19.4255 16.0615 19.5681 15.8059 19.5681V20.0681ZM11.7959 20.0681H15.8059V19.5681H11.7959V20.0681ZM10.7276 19.4855C10.9713 19.8741 11.3659 20.0681 11.7959 20.0681V19.5681C11.525 19.5681 11.2967 19.4519 11.1511 19.2198L10.7276 19.4855ZM8.76584 15.9281C9.23692 16.9449 9.8654 18.1581 10.7297 19.4888L11.149 19.2165C10.3002 17.9096 9.68284 16.718 9.21953 15.7179L8.76584 15.9281ZM9.07136 15.1598C8.95947 15.36 8.85667 15.5438 8.77122 15.707L9.21415 15.939C9.29578 15.7831 9.39491 15.6057 9.50779 15.4038L9.07136 15.1598ZM9.07367 15.1558L9.07363 15.1559L9.50552 15.4078L9.50556 15.4077L9.07367 15.1558ZM9.0718 15.1591L9.07172 15.1592L9.50751 15.4043L9.50759 15.4042L9.0718 15.1591ZM9.0712 15.1601L9.07115 15.1602L9.50823 15.403L9.50827 15.403L9.0712 15.1601ZM10.7353 11.2261C10.3285 12.9094 9.58743 14.2367 9.07152 15.1596L9.50795 15.4035C10.0243 14.48 10.7969 13.0999 11.2213 11.3435L10.7353 11.2261ZM14.6746 11.0123C13.6957 11.0224 12.4848 11.0348 10.9783 11.0348V11.5348C12.4876 11.5348 13.7007 11.5224 14.6797 11.5123L14.6746 11.0123ZM14.6773 11.0123H14.6772V11.5123H14.6773V11.0123ZM19.3721 11.8605C19.2558 11.6536 19.1237 11.4729 18.9185 11.3358C18.7162 11.2005 18.4658 11.123 18.1395 11.0756C17.4988 10.9825 16.4603 10.994 14.6747 11.0123L14.6798 11.5123C16.4903 11.4937 17.476 11.4845 18.0676 11.5704C18.3575 11.6125 18.5254 11.6744 18.6407 11.7515C18.7532 11.8267 18.8383 11.9313 18.9363 12.1055L19.3721 11.8605ZM17.4247 9.77207V9.84965H17.9247V9.77207H17.4247ZM17.4941 9.96199C17.5056 9.97009 17.5726 10.0221 17.6747 10.0221V9.52207C17.7045 9.52207 17.7335 9.52899 17.7586 9.54047C17.7774 9.5491 17.7911 9.55958 17.7821 9.55325L17.4941 9.96199ZM17.5579 9.98328C17.5556 9.98328 17.5409 9.98279 17.5204 9.97501C17.5007 9.96751 17.4869 9.95694 17.4941 9.962L17.7821 9.55324C17.7736 9.54727 17.7426 9.52454 17.6981 9.50763C17.6528 9.49044 17.6059 9.48328 17.5579 9.48328V9.98328ZM11.2508 9.98328H17.5579V9.48328H11.2508V9.98328ZM11.4254 10.4411C11.4603 10.2212 11.5008 9.96963 11.5008 9.73328H11.0008C11.0008 9.92286 10.9679 10.1338 10.9316 10.3627L11.4254 10.4411ZM11.3821 10.7341C11.3937 10.6415 11.409 10.5444 11.4254 10.4411L10.9316 10.3627C10.9155 10.4645 10.8988 10.5698 10.8859 10.6719L11.3821 10.7341ZM16.8571 10.453H11.134V10.953H16.8571V10.453ZM17.4942 9.67669L16.6766 10.53L17.0377 10.8759L17.8552 10.0226L17.4942 9.67669ZM9.43735 6.86298C9.43735 6.47324 9.44205 6.12354 9.70074 5.76917L9.29689 5.47437C8.93265 5.97333 8.93735 6.47696 8.93735 6.86298H9.43735ZM8.96492 8.13518C9.19049 7.93292 9.31648 7.72826 9.3795 7.50225C9.43904 7.28871 9.43735 7.06859 9.43735 6.86298H8.93735C8.93735 7.08404 8.93566 7.2324 8.89787 7.36796C8.86355 7.49104 8.79488 7.61608 8.63112 7.76291L8.96492 8.13518ZM7.7079 8.54813C7.91499 8.54813 8.13212 8.5495 8.34258 8.49709C8.56466 8.44177 8.76949 8.33036 8.97447 8.12615L8.62157 7.77194C8.47616 7.91681 8.35005 7.97995 8.22174 8.01191C8.0818 8.04676 7.92907 8.04813 7.7079 8.04813V8.54813ZM6.40489 9.01827C6.84047 8.58432 7.26346 8.54813 7.7079 8.54813V8.04813C7.21795 8.04813 6.62868 8.08952 6.052 8.66406L6.40489 9.01827ZM5.94135 10.3003C5.94553 10.0709 5.95041 9.86802 6.00865 9.66108C6.06498 9.46098 6.17463 9.24768 6.40489 9.01827L6.052 8.66406C5.76227 8.95271 5.60751 9.24086 5.52736 9.52561C5.44914 9.80352 5.44548 10.0689 5.44144 10.2912L5.94135 10.3003ZM5.50944 11.5783C5.93246 11.1568 5.93425 10.6903 5.94135 10.3003L5.44144 10.2912C5.4342 10.6886 5.42257 10.959 5.15654 11.2241L5.50944 11.5783ZM4.24287 12.0003C4.44996 12.0003 4.66709 12.0016 4.87755 11.9492C5.09963 11.8939 5.30446 11.7825 5.50944 11.5783L5.15654 11.2241C5.01112 11.3689 4.88502 11.4321 4.75671 11.464C4.61677 11.4989 4.46404 11.5003 4.24287 11.5003V12.0003ZM2.50476 13.2985C2.55541 12.9452 2.71345 12.6353 2.98666 12.4078C3.26081 12.1795 3.67045 12.0182 4.25065 12.0001L4.23509 11.5004C3.56943 11.5211 3.04468 11.7089 2.66671 12.0236C2.28779 12.3391 2.07597 12.7662 2.00982 13.2275L2.50476 13.2985ZM1.39549 11.7077C1.55371 12.2199 1.7523 12.7743 2.03089 13.369L2.48368 13.1569C2.21722 12.5881 2.02648 12.0563 1.87323 11.5601L1.39549 11.7077ZM2.91915 10.8021C2.53505 10.8021 1.8489 10.7931 1.4202 11.5049L1.84852 11.7629C2.12061 11.3111 2.52458 11.3021 2.91915 11.3021V10.8021ZM4.69376 9.02814C4.67546 9.68438 4.4944 10.1057 4.21276 10.3705C3.92827 10.638 3.5009 10.7838 2.91137 10.8022L2.92693 11.302C3.58325 11.2815 4.14867 11.1171 4.55524 10.7348C4.96466 10.3499 5.17293 9.78219 5.19356 9.04207L4.69376 9.02814ZM5.11761 7.77194C4.91264 7.97614 4.80062 8.1804 4.74498 8.40213C4.69227 8.61218 4.69366 8.82886 4.69366 9.0351H5.19366C5.19366 8.81468 5.19505 8.66287 5.22994 8.52383C5.2619 8.39647 5.32508 8.27103 5.4705 8.12615L5.11761 7.77194ZM6.38418 7.34995C6.17709 7.34995 5.95996 7.34858 5.7495 7.401C5.52742 7.45631 5.32259 7.56772 5.11761 7.77194L5.4705 8.12615C5.61592 7.98127 5.74202 7.91814 5.87034 7.88618C6.01027 7.85132 6.16301 7.84995 6.38418 7.84995V7.34995ZM8.15879 5.57601C8.14049 6.23226 7.95943 6.65363 7.67779 6.91841C7.3933 7.18587 6.96593 7.33172 6.3764 7.35007L6.39196 7.84983C7.04828 7.8294 7.6137 7.66494 8.02027 7.2827C8.42969 6.89779 8.63796 6.33007 8.65859 5.58995L8.15879 5.57601ZM8.44256 4.50171C8.15417 4.8848 8.15869 5.23445 8.15869 5.58298H8.65869C8.65869 5.23333 8.66321 5.03995 8.84202 4.80243L8.44256 4.50171ZM9.34107 5.11718C9.15789 4.95105 9.02087 4.82673 8.86222 4.5332L8.42236 4.77094C8.62178 5.13991 8.80922 5.30984 9.00519 5.48756L9.34107 5.11718ZM9.68433 5.45418C9.55497 5.31099 9.44027 5.20713 9.34107 5.11718L9.00519 5.48756C9.10401 5.57717 9.20223 5.66641 9.3133 5.78936L9.68433 5.45418ZM2.83519 5.58931C3.53575 5.06585 3.77351 4.34165 3.76285 3.63015C3.75233 2.92789 3.50173 2.2286 3.21695 1.70169L2.77708 1.93943C3.03736 2.421 3.25396 3.0405 3.2629 3.63764C3.27171 4.22552 3.08121 4.78132 2.53591 5.18877L2.83519 5.58931ZM2.84616 5.58136C2.85 5.57773 2.85687 5.57126 2.86199 5.56615L2.50911 5.21193C2.51005 5.21099 2.51021 5.21086 2.50855 5.21245C2.50711 5.21382 2.50526 5.21557 2.50253 5.21815L2.84616 5.58136ZM1.68399 10.9214C0.915631 7.38552 2.70221 5.71755 2.84616 5.58135L2.50253 5.21815C2.29128 5.41802 0.375196 7.25315 1.1954 11.0276L1.68399 10.9214ZM2.88021 10.2203C2.42945 10.2203 1.8456 10.2616 1.27047 10.7905L1.60892 11.1585C2.04604 10.7565 2.47445 10.7203 2.88021 10.7203V10.2203ZM2.95577 10.2127C2.92423 10.2154 2.89135 10.2182 2.85766 10.2213L2.90277 10.7192C2.93497 10.7163 2.96659 10.7136 2.99831 10.7109L2.95577 10.2127ZM3.79389 9.90527C3.65929 10.0394 3.54022 10.1044 3.41965 10.1423C3.2902 10.1831 3.15118 10.196 2.95577 10.2127L2.99831 10.7109C3.18249 10.6952 3.37839 10.6795 3.56984 10.6192C3.77015 10.5562 3.95794 10.4476 4.14678 10.2595L3.79389 9.90527ZM4.07073 8.99631C4.07073 9.21673 4.06934 9.36855 4.03445 9.50759C4.00249 9.63495 3.93932 9.76039 3.79389 9.90527L4.14678 10.2595C4.35175 10.0553 4.46378 9.85101 4.51942 9.62928C4.57212 9.41924 4.57073 9.20256 4.57073 8.99631H4.07073ZM6.33747 6.72947C5.68114 6.7499 5.11572 6.91436 4.70915 7.2966C4.29974 7.6815 4.09147 8.24923 4.07083 8.98935L4.57064 9.00328C4.58893 8.34704 4.76999 7.92567 5.05164 7.66088C5.33612 7.39342 5.76349 7.24758 6.35303 7.22922L6.33747 6.72947ZM7.25892 6.45315C7.1135 6.59803 6.9874 6.66116 6.85909 6.69312C6.71915 6.72797 6.56642 6.72934 6.34525 6.72934V7.22934C6.55233 7.22934 6.76946 7.23072 6.97993 7.1783C7.20201 7.12298 7.40684 7.01157 7.61181 6.80736L7.25892 6.45315ZM7.54382 5.52025C7.53658 5.91768 7.52495 6.18811 7.25892 6.45315L7.61181 6.80736C8.03484 6.38591 8.03663 5.91937 8.04373 5.52935L7.54382 5.52025ZM8.15438 3.89315C7.86465 4.1818 7.70988 4.46995 7.62974 4.7547C7.55151 5.03261 7.54786 5.29797 7.54382 5.52025L8.04373 5.52935C8.04791 5.29999 8.05278 5.09712 8.11103 4.89017C8.16735 4.69008 8.27701 4.47677 8.50727 4.24736L8.15438 3.89315ZM8.23224 3.81557L8.15438 3.89315L8.50727 4.24736L8.58514 4.16978L8.23224 3.81557ZM8.65245 1.70842C8.33339 2.34416 8.0326 3.21677 8.16177 4.03181L8.65561 3.95355C8.55118 3.29465 8.79546 2.53816 9.09933 1.93269L8.65245 1.70842ZM2.99701 2.07056H8.87589V1.57056H2.99701V2.07056Z" fill="#0052BD"/>
<path d="M16.0395 17.3358C15.9617 17.4909 16.0006 17.6461 16.1563 17.7237C16.3121 17.8012 16.4678 17.7625 16.5457 17.6073C17.2465 16.4049 18.7259 14.194 18.3366 12.5261C18.2977 12.3709 18.1419 12.2934 17.9862 12.3322C17.8305 12.3709 17.7526 12.5261 17.7915 12.6812C18.103 14.0776 16.7403 16.1334 16.0395 17.3358Z" fill="#0052BD" stroke="#0052BD" stroke-width="0.5"/>
</svg>
