<svg width="22" height="19" viewBox="0 0 22 19" fill="none" xmlns="http://www.w3.org/2000/svg">
<path d="M9.8035 9.25635H8.96859C8.67109 9.25635 8.42993 9.49982 8.42993 9.80015C8.42993 10.1005 8.67109 10.344 8.96859 10.344H9.8035C10.101 10.344 10.3422 10.1005 10.3422 9.80015C10.3422 9.49982 10.101 9.25635 9.8035 9.25635Z" fill="#0052BD"/>
<path d="M13.4663 9.25635H12.6314C12.3339 9.25635 12.0928 9.49982 12.0928 9.80015C12.0928 10.1005 12.3339 10.344 12.6314 10.344H13.4663C13.7638 10.344 14.005 10.1005 14.005 9.80015C14.005 9.49982 13.7638 9.25635 13.4663 9.25635Z" fill="#0052BD"/>
<path d="M9.8035 5.55835H8.96859C8.67109 5.55835 8.42993 5.80182 8.42993 6.10216C8.42993 6.40249 8.67109 6.64596 8.96859 6.64596H9.8035C10.101 6.64596 10.3422 6.40249 10.3422 6.10216C10.3422 5.80182 10.101 5.55835 9.8035 5.55835Z" fill="#0052BD"/>
<path d="M13.4663 5.55835H12.6314C12.3339 5.55835 12.0928 5.80182 12.0928 6.10216C12.0928 6.40249 12.3339 6.64596 12.6314 6.64596H13.4663C13.7638 6.64596 14.005 6.40249 14.005 6.10216C14.005 5.80182 13.7638 5.55835 13.4663 5.55835Z" fill="#0052BD"/>
<path d="M9.8035 12.9541H8.96858C8.67109 12.9541 8.42993 13.1976 8.42993 13.4979C8.42993 13.7982 8.67109 14.0417 8.96858 14.0417H9.8035C10.101 14.0417 10.3422 13.7982 10.3422 13.4979C10.3422 13.1976 10.101 12.9541 9.8035 12.9541V12.9541Z" fill="#0052BD"/>
<path d="M13.4663 12.9541H12.6314C12.3339 12.9541 12.0928 13.1976 12.0928 13.4979C12.0928 13.7982 12.3339 14.0417 12.6314 14.0417H13.4663C13.7638 14.0417 14.005 13.7982 14.005 13.4979C14.005 13.1976 13.7638 12.9541 13.4663 12.9541V12.9541Z" fill="#0052BD"/>
<path fill-rule="evenodd" clip-rule="evenodd" d="M21.6 5.66712V18.2562C21.6 18.5566 21.3588 18.8 21.0613 18.8H0.538653C0.241163 18.8 0 18.5566 0 18.2562V11.7306C0 10.5292 0.964653 9.55534 2.15461 9.55534H5.5212V2.97528C5.5212 1.77393 6.48585 0.800049 7.67581 0.800049H14.7591C15.9491 0.800049 16.9137 1.77393 16.9137 2.97528V3.49189H19.4454C20.6353 3.49189 21.6 4.46577 21.6 5.66712ZM1.07731 17.7124H4.71322H6.6793V11.7306C6.6793 11.4421 6.5658 11.1655 6.36377 10.9615C6.16173 10.7575 5.88771 10.6429 5.60199 10.6429H2.15461C1.55963 10.6429 1.07731 11.1299 1.07731 11.7306V17.7124ZM11.0424 17.7124H7.75661V11.7306C7.74552 10.9228 7.30247 10.1842 6.5985 9.80005V2.97528C6.5985 2.3746 7.08083 1.88766 7.67581 1.88766H14.7591C15.3541 1.88766 15.8364 2.3746 15.8364 2.97528V17.7124H11.0424ZM16.9137 17.7124H20.5227V5.66712C20.5227 5.06645 20.0404 4.5795 19.4454 4.5795H16.9137V17.7124Z" fill="#0052BD"/>
</svg>
