<svg width="21" height="22" viewBox="0 0 21 22" fill="none" xmlns="http://www.w3.org/2000/svg">
<path fill-rule="evenodd" clip-rule="evenodd" d="M16.1416 0.490909C16.1416 0.219927 16.3592 0 16.6274 0C16.8956 0 17.1133 0.219927 17.1133 0.490909V1.47273C17.1133 1.74371 16.8956 1.96364 16.6274 1.96364C16.3592 1.96364 16.1416 1.74371 16.1416 1.47273V0.490909ZM19.032 1.29439C19.1267 1.19866 19.2511 1.15057 19.3755 1.15057C19.4998 1.15057 19.6242 1.19866 19.719 1.29439C19.9084 1.48584 19.9084 1.79711 19.719 1.98857L19.032 2.68274C18.9367 2.77798 18.8128 2.82656 18.6884 2.82656C18.5641 2.82656 18.4392 2.77798 18.3449 2.68274C18.1555 2.49129 18.1555 2.18002 18.3449 1.98857L19.032 1.29439ZM4.15869 3.92727C4.07319 3.92727 3.99055 3.95217 3.91767 3.99439C3.90267 4.00313 3.89129 4.01587 3.87984 4.02868C3.872 4.03745 3.86413 4.04625 3.85504 4.05384C3.8464 4.061 3.83748 4.06794 3.82855 4.07489C3.79832 4.09842 3.76787 4.12212 3.74687 4.15547L0.668592 9.06456C0.666929 9.0668 0.666561 9.06895 0.66619 9.07111C0.665911 9.07274 0.665631 9.07438 0.664797 9.07607C0.624958 9.14381 0.605129 9.21809 0.600271 9.29467C0.599662 9.30636 0.600925 9.31792 0.602192 9.3295C0.602947 9.33641 0.603704 9.34332 0.604066 9.35028C0.606981 9.40919 0.619629 9.46499 0.643921 9.52095C0.646688 9.52748 0.647434 9.53421 0.648181 9.54096C0.649008 9.54843 0.649836 9.55592 0.65341 9.56314C0.656325 9.56805 0.661035 9.57183 0.665746 9.5756L0.665751 9.57561C0.67046 9.57938 0.675168 9.58316 0.678081 9.58807C0.681944 9.59414 0.684381 9.60096 0.68682 9.60778C0.689904 9.61641 0.692989 9.62505 0.698958 9.63217L9.92998 21.414C9.93347 21.4185 9.93833 21.4211 9.94328 21.4238C9.94798 21.4263 9.95277 21.4289 9.95655 21.4332C9.99153 21.4715 10.0304 21.5054 10.0761 21.531C10.0917 21.5398 10.1051 21.5471 10.1217 21.554C10.1809 21.5805 10.2434 21.6 10.3114 21.6C10.3795 21.6 10.4429 21.5814 10.5031 21.5559C10.5154 21.5508 10.5255 21.5444 10.5359 21.5378L10.5468 21.531C10.5915 21.5054 10.6314 21.4734 10.6663 21.4351C10.6698 21.4316 10.674 21.4288 10.6783 21.426C10.6837 21.4225 10.6891 21.4189 10.6929 21.414L19.9239 9.63217C19.9295 9.62497 19.9323 9.61751 19.9351 9.61005C19.9377 9.60329 19.9402 9.59653 19.9448 9.58999C19.9476 9.58529 19.952 9.58185 19.9565 9.57835C19.9615 9.57455 19.9664 9.57069 19.9695 9.56506C19.9731 9.55832 19.9739 9.55077 19.9747 9.54313C19.9755 9.53628 19.9762 9.52936 19.979 9.52287C20.0033 9.46691 20.0159 9.41018 20.0188 9.35028C20.0188 9.34177 20.0198 9.33374 20.0208 9.32574C20.022 9.31621 20.0231 9.30674 20.0226 9.29659C20.0178 9.22001 19.9979 9.14475 19.9581 9.07798C19.9571 9.07602 19.9567 9.07364 19.9562 9.07127C19.9557 9.0689 19.9553 9.06652 19.9543 9.06456L16.876 4.15547C16.8654 4.13882 16.8508 4.12811 16.8359 4.11723C16.8263 4.11016 16.8165 4.10301 16.8077 4.09411C16.7164 3.99691 16.5993 3.92727 16.4642 3.92727H10.3114H4.15869ZM19.0566 4.41818C19.0566 4.1472 19.2743 3.92727 19.5425 3.92727H20.5142C20.7823 3.92727 21 4.1472 21 4.41818C21 4.68916 20.7823 4.90909 20.5142 4.90909H19.5425C19.2743 4.90909 19.0566 4.68916 19.0566 4.41818ZM5.04118 4.90909H9.42896L7.23317 8.40874L5.04118 4.90909ZM15.5817 4.90909H11.1939L13.3897 8.40874L15.5817 4.90909ZM4.15869 5.33672L6.35068 8.83636H5.45301H1.96291L4.15869 5.33672ZM12.5053 8.83636L10.3114 5.33672L8.11756 8.83636H12.5053ZM16.4642 5.33672L18.66 8.83636H15.1699H14.2722L16.4642 5.33672ZM5.45301 9.81818H2.08437L9.29231 19.0189L7.01682 9.81818H5.45301ZM12.604 9.81818L10.3114 19.0841L8.01887 9.81818H12.604ZM15.1699 9.81818H13.6061L11.3306 19.0189L18.5385 9.81818H15.1699Z" fill="#0052BD"/>
</svg>
