<svg width="23" height="18" viewBox="0 0 23 18" fill="none" xmlns="http://www.w3.org/2000/svg">
<path fill-rule="evenodd" clip-rule="evenodd" d="M14.6875 2.42222H12.4375V1H10.5625V2.42222H8.3125V8.46667H10.5625V17H12.4375V8.46667H14.6875V2.42222ZM12.8125 6.68889H10.1875V4.2H12.8125V6.68889Z" fill="#0052BD"/>
<path d="M12.4375 2.42222H12.1518V2.70794H12.4375V2.42222ZM14.6875 2.42222H14.9732V2.13651H14.6875V2.42222ZM12.4375 1H12.7232V0.714286H12.4375V1ZM10.5625 1V0.714286H10.2768V1H10.5625ZM10.5625 2.42222V2.70794H10.8482V2.42222H10.5625ZM8.3125 2.42222V2.13651H8.02679V2.42222H8.3125ZM8.3125 8.46667H8.02679V8.75238H8.3125V8.46667ZM10.5625 8.46667H10.8482V8.18095H10.5625V8.46667ZM10.5625 17H10.2768V17.2857H10.5625V17ZM12.4375 17V17.2857H12.7232V17H12.4375ZM12.4375 8.46667V8.18095H12.1518V8.46667H12.4375ZM14.6875 8.46667V8.75238H14.9732V8.46667H14.6875ZM10.1875 6.68889H9.90179V6.9746H10.1875V6.68889ZM12.8125 6.68889V6.9746H13.0982V6.68889H12.8125ZM10.1875 4.2V3.91429H9.90179V4.2H10.1875ZM12.8125 4.2H13.0982V3.91429H12.8125V4.2ZM12.4375 2.70794H14.6875V2.13651H12.4375V2.70794ZM12.1518 1V2.42222H12.7232V1H12.1518ZM10.5625 1.28571H12.4375V0.714286H10.5625V1.28571ZM10.8482 2.42222V1H10.2768V2.42222H10.8482ZM8.3125 2.70794H10.5625V2.13651H8.3125V2.70794ZM8.59821 8.46667V2.42222H8.02679V8.46667H8.59821ZM10.5625 8.18095H8.3125V8.75238H10.5625V8.18095ZM10.8482 17V8.46667H10.2768V17H10.8482ZM12.4375 16.7143H10.5625V17.2857H12.4375V16.7143ZM12.1518 8.46667V17H12.7232V8.46667H12.1518ZM14.6875 8.18095H12.4375V8.75238H14.6875V8.18095ZM14.4018 2.42222V8.46667H14.9732V2.42222H14.4018ZM10.1875 6.9746H12.8125V6.40317H10.1875V6.9746ZM9.90179 4.2V6.68889H10.4732V4.2H9.90179ZM12.8125 3.91429H10.1875V4.48571H12.8125V3.91429ZM13.0982 6.68889V4.2H12.5268V6.68889H13.0982Z" fill="#FEFEFE"/>
<path fill-rule="evenodd" clip-rule="evenodd" d="M7.375 10.2444H5.125V1H3.25V10.2444H1V16.2889H3.25V17H5.125V16.2889H7.375V10.2444ZM5.5 14.5111H2.875V12.0222H5.5V14.5111Z" fill="#0052BD"/>
<path d="M5.125 10.2444H4.83929V10.5302H5.125V10.2444ZM7.375 10.2444H7.66071V9.95873H7.375V10.2444ZM5.125 1H5.41071V0.714286H5.125V1ZM3.25 1V0.714286H2.96429V1H3.25ZM3.25 10.2444V10.5302H3.53571V10.2444H3.25ZM1 10.2444V9.95873H0.714286V10.2444H1ZM1 16.2889H0.714286V16.5746H1V16.2889ZM3.25 16.2889H3.53571V16.0032H3.25V16.2889ZM3.25 17H2.96429V17.2857H3.25V17ZM5.125 17V17.2857H5.41071V17H5.125ZM5.125 16.2889V16.0032H4.83929V16.2889H5.125ZM7.375 16.2889V16.5746H7.66071V16.2889H7.375ZM2.875 14.5111H2.58929V14.7968H2.875V14.5111ZM5.5 14.5111V14.7968H5.78571V14.5111H5.5ZM2.875 12.0222V11.7365H2.58929V12.0222H2.875ZM5.5 12.0222H5.78571V11.7365H5.5V12.0222ZM5.125 10.5302H7.375V9.95873H5.125V10.5302ZM4.83929 1V10.2444H5.41071V1H4.83929ZM3.25 1.28571H5.125V0.714286H3.25V1.28571ZM3.53571 10.2444V1H2.96429V10.2444H3.53571ZM1 10.5302H3.25V9.95873H1V10.5302ZM1.28571 16.2889V10.2444H0.714286V16.2889H1.28571ZM3.25 16.0032H1V16.5746H3.25V16.0032ZM3.53571 17V16.2889H2.96429V17H3.53571ZM5.125 16.7143H3.25V17.2857H5.125V16.7143ZM4.83929 16.2889V17H5.41071V16.2889H4.83929ZM7.375 16.0032H5.125V16.5746H7.375V16.0032ZM7.08929 10.2444V16.2889H7.66071V10.2444H7.08929ZM2.875 14.7968H5.5V14.2254H2.875V14.7968ZM2.58929 12.0222V14.5111H3.16071V12.0222H2.58929ZM5.5 11.7365H2.875V12.3079H5.5V11.7365ZM5.78571 14.5111V12.0222H5.21429V14.5111H5.78571Z" fill="#FEFEFE"/>
<path fill-rule="evenodd" clip-rule="evenodd" d="M22 7.75556H19.75V1H17.875V7.75556H15.625V13.8H17.875V17H19.75V13.8H22V7.75556ZM20.125 12.0222H17.5V9.53333H20.125V12.0222Z" fill="#0052BD"/>
<path d="M19.75 7.75556H19.4643V8.04127H19.75V7.75556ZM22 7.75556H22.2857V7.46984H22V7.75556ZM19.75 1H20.0357V0.714286H19.75V1ZM17.875 1V0.714286H17.5893V1H17.875ZM17.875 7.75556V8.04127H18.1607V7.75556H17.875ZM15.625 7.75556V7.46984H15.3393V7.75556H15.625ZM15.625 13.8H15.3393V14.0857H15.625V13.8ZM17.875 13.8H18.1607V13.5143H17.875V13.8ZM17.875 17H17.5893V17.2857H17.875V17ZM19.75 17V17.2857H20.0357V17H19.75ZM19.75 13.8V13.5143H19.4643V13.8H19.75ZM22 13.8V14.0857H22.2857V13.8H22ZM17.5 12.0222H17.2143V12.3079H17.5V12.0222ZM20.125 12.0222V12.3079H20.4107V12.0222H20.125ZM17.5 9.53333V9.24762H17.2143V9.53333H17.5ZM20.125 9.53333H20.4107V9.24762H20.125V9.53333ZM19.75 8.04127H22V7.46984H19.75V8.04127ZM19.4643 1V7.75556H20.0357V1H19.4643ZM17.875 1.28571H19.75V0.714286H17.875V1.28571ZM18.1607 7.75556V1H17.5893V7.75556H18.1607ZM15.625 8.04127H17.875V7.46984H15.625V8.04127ZM15.9107 13.8V7.75556H15.3393V13.8H15.9107ZM17.875 13.5143H15.625V14.0857H17.875V13.5143ZM18.1607 17V13.8H17.5893V17H18.1607ZM19.75 16.7143H17.875V17.2857H19.75V16.7143ZM19.4643 13.8V17H20.0357V13.8H19.4643ZM22 13.5143H19.75V14.0857H22V13.5143ZM21.7143 7.75556V13.8H22.2857V7.75556H21.7143ZM17.5 12.3079H20.125V11.7365H17.5V12.3079ZM17.2143 9.53333V12.0222H17.7857V9.53333H17.2143ZM20.125 9.24762H17.5V9.81905H20.125V9.24762ZM20.4107 12.0222V9.53333H19.8393V12.0222H20.4107Z" fill="#FEFEFE"/>
</svg>
