<svg width="204" height="334" viewBox="0 0 204 334" fill="none" xmlns="http://www.w3.org/2000/svg">
<path fill-rule="evenodd" clip-rule="evenodd" d="M141.439 139.53L9.61508 275.247C-4.02394 289.577 -2.33061 312.08 13.8583 324.282C28.3957 337.437 51.7199 336.691 63.9317 321.461L182.054 173.615L188.966 179.967C190.393 180.867 191.82 181.767 193.594 181.39L194.185 181.264C195.368 181.013 196.428 180.186 197.488 179.359L212.88 161.648L232.78 179.679C229.396 187.017 231.109 195.076 237.185 200.402L244.811 207.205C252.436 214.007 264.037 213.346 271.091 205.83L315.046 156.778C321.508 149.388 321.08 138.649 313.454 131.847L305.828 125.044C299.752 119.718 291.454 118.473 284.258 122.41L182.393 32.7549C185.186 25.543 184.065 17.3582 177.989 12.0315L170.363 5.22916C163.329 -1.69886 150.545 -0.786638 144.083 6.60362L100.25 56.2315C93.7877 63.6217 94.2164 74.3605 101.842 81.1628L109.345 87.3895C114.707 92.2663 123.597 93.3851 130.794 89.4487L150.693 107.48L134.832 125.893C132.957 128.698 133.1 132.278 135.363 134.203L141.439 139.53ZM162.963 14.0221L170.466 20.2488C172.851 22.75 172.994 26.3295 170.996 28.5592L127.286 78.7627C124.819 81.6937 120.558 81.9978 118.173 79.4965L110.67 73.2698C108.284 70.7686 108.019 66.6134 110.017 64.3837L153.849 14.7559C156.316 11.8249 160.577 11.5208 162.963 14.0221ZM175.584 41.4221L140.213 81.4301C171.425 109.238 163.868 102.569 153.586 93.4941L153.585 93.4929L153.584 93.4921C136.744 78.6302 112.6 57.3227 239.467 170.436L274.839 130.428L175.584 41.4221ZM252.802 198.286L245.177 191.484C242.322 189.684 242.057 185.529 244.524 182.598L288.478 133.546C291.068 131.19 295.329 130.886 297.714 133.387L305.34 140.19C307.725 142.691 307.991 146.846 305.993 149.076L262.038 198.128C259.449 200.483 255.188 200.787 252.802 198.286ZM191.962 167.899L203.359 154.647C194.061 146.353 189.188 141.937 185.666 138.747L185.665 138.746C179.079 132.779 177.223 131.097 159.991 116.334L148.126 130.287C187.37 164.34 182.843 160.125 180.501 157.944C178.955 156.504 178.362 155.952 191.962 167.899ZM53.2275 314.711C45.3581 324.205 30.6786 324.919 20.7899 316.191C10.9011 307.463 9.61594 292.695 18.6679 282.949L150.492 147.232C159.069 154.635 159.916 155.391 163.587 158.666C165.423 160.303 167.965 162.571 172.532 166.614L53.2275 314.711Z" fill="white"/>
</svg>
