<svg width="21" height="20" viewBox="0 0 21 20" fill="none" xmlns="http://www.w3.org/2000/svg">
<path fill-rule="evenodd" clip-rule="evenodd" d="M0.989723 0.695923L3.97567 9.86489L0.0476356 18.6754C-0.147902 19.1138 0.293478 19.5655 0.736282 19.3802L20.2663 11.2067C20.2922 11.1969 20.3172 11.1851 20.341 11.1715C20.492 11.0868 20.5802 10.9427 20.6028 10.7895C20.6053 10.7728 20.607 10.7558 20.6079 10.7386C20.6083 10.7322 20.6085 10.7258 20.6086 10.7194C20.6118 10.5351 20.5215 10.3489 20.3333 10.2458L1.74826 0.0669481C1.32725 -0.163637 0.841071 0.2395 0.989723 0.695923ZM17.7882 10.0601L2.41067 1.63789L4.93493 9.38657L17.7882 10.0601ZM4.87935 10.4451L1.56067 17.8859L17.7286 11.1185L4.87935 10.4451Z" fill="white"/>
</svg>
