<svg width="27" height="30" viewBox="0 0 27 30" fill="none" xmlns="http://www.w3.org/2000/svg">
<path fill-rule="evenodd" clip-rule="evenodd" d="M21.8683 10.8385H18.2969C18.7741 8.6103 18.7741 6.30808 18.2969 4.07933C18.0504 2.83207 17.1907 1.78856 16.0038 1.29662C14.8168 0.804712 13.46 0.930418 12.386 1.63067C11.3119 2.33091 10.6625 3.51382 10.6543 4.78469V8.48738C10.5427 9.91313 9.78062 11.2109 8.58318 12.0139C8.16466 11.3992 7.46422 11.0295 6.71386 11.0266H3.25007C2.6531 11.0266 2.08112 11.2608 1.65917 11.6775C1.23717 12.0942 1 12.659 1 13.2484V26.7782C1 27.3677 1.23717 27.9325 1.65917 28.3491C2.08118 28.7658 2.65316 29 3.25007 29H6.69007C7.20275 28.9994 7.69976 28.8267 8.09968 28.5104C8.4996 28.1947 8.77919 27.7539 8.89254 27.2603H19.6067C20.8704 27.2586 22.065 26.6926 22.8566 25.7204C25.3805 22.5583 25.9636 18.1501 25.9996 15.0117C26.0153 13.9102 25.5834 12.8483 24.8004 12.0643C24.0174 11.2796 22.9485 10.8382 21.833 10.8382L21.8683 10.8385ZM6.55895 26.649H3.38058V13.3424H6.55895V26.649ZM19.6424 24.9443C20.1777 24.946 20.6852 24.7084 21.0229 24.298L21.0228 24.2631C23.1422 21.6767 23.6183 17.7506 23.6421 15.0587C23.6491 14.5887 23.4648 14.1352 23.13 13.8006C22.794 13.4636 22.3354 13.2737 21.8564 13.2719H16.5586C16.154 13.2714 15.7773 13.0676 15.5588 12.7313C15.3198 12.3823 15.2879 11.934 15.4756 11.5557C16.3086 9.29599 16.4615 6.84624 15.9157 4.50273C15.7535 3.78353 15.0734 3.2968 14.3312 3.36854C13.5889 3.44029 13.0169 4.04813 12.9994 4.78454V8.51074C13.0234 11.7319 10.2495 13.8241 8.92822 14.6237V24.9443H19.6424Z" fill="#0052BD"/>
<path d="M18.2969 10.8385L18.0035 10.7756L17.9258 11.1385H18.2969V10.8385ZM21.8683 10.8385V11.1385L21.8703 10.5385L21.8683 10.8385ZM18.2969 4.07933L18.0025 4.13749L18.0035 4.14214L18.2969 4.07933ZM16.0038 1.29662L16.1186 1.01948L16.1186 1.01947L16.0038 1.29662ZM10.6543 4.78469L10.3543 4.78276V4.78469H10.6543ZM10.6543 8.48738L10.9534 8.51079L10.9543 8.4991V8.48738H10.6543ZM8.58318 12.0139L8.3352 12.1827L8.50285 12.429L8.75027 12.263L8.58318 12.0139ZM6.71386 11.0266L6.71501 10.7266H6.71386V11.0266ZM1.65917 11.6775L1.86996 11.891L1.86997 11.891L1.65917 11.6775ZM1.65917 28.3491L1.86996 28.1356L1.86994 28.1356L1.65917 28.3491ZM6.69007 29V29.3L6.6904 29.3L6.69007 29ZM8.09968 28.5104L7.9138 28.2749L7.91359 28.2751L8.09968 28.5104ZM8.89254 27.2603V26.9603H8.65362L8.60015 27.1931L8.89254 27.2603ZM19.6067 27.2603V27.5603L19.6071 27.5603L19.6067 27.2603ZM22.8566 25.7204L23.0893 25.9098L23.0911 25.9075L22.8566 25.7204ZM25.9996 15.0117L25.6996 15.0074L25.6996 15.0082L25.9996 15.0117ZM24.8004 12.0643L24.5881 12.2762L24.5881 12.2762L24.8004 12.0643ZM21.833 10.8382V10.5382L21.831 11.1382L21.833 10.8382ZM3.38058 26.649H3.08058V26.949H3.38058V26.649ZM6.55895 26.649V26.949H6.85895V26.649H6.55895ZM3.38058 13.3424V13.0424H3.08058V13.3424H3.38058ZM6.55895 13.3424H6.85895V13.0424H6.55895V13.3424ZM21.0229 24.298L21.2545 24.4886L21.3232 24.4052L21.3229 24.2971L21.0229 24.298ZM19.6424 24.9443L19.6433 24.6443H19.6424V24.9443ZM21.0228 24.2631L20.7907 24.0729L20.7225 24.1562L20.7228 24.264L21.0228 24.2631ZM23.6421 15.0587L23.3421 15.0543L23.3421 15.0561L23.6421 15.0587ZM23.13 13.8006L22.9176 14.0124L22.9179 14.0128L23.13 13.8006ZM21.8564 13.2719L21.8575 12.9719H21.8564V13.2719ZM16.5586 13.2719L16.5581 13.5719H16.5586V13.2719ZM15.5588 12.7313L15.8104 12.5677L15.8063 12.5618L15.5588 12.7313ZM15.4756 11.5557L15.7443 11.6891L15.7515 11.6747L15.7571 11.6595L15.4756 11.5557ZM15.9157 4.50273L15.623 4.5687L15.6235 4.57078L15.9157 4.50273ZM14.3312 3.36854L14.3023 3.06994H14.3023L14.3312 3.36854ZM12.9994 4.78454L12.6994 4.77744V4.78454H12.9994ZM12.9994 8.51074H12.6994L12.6995 8.51297L12.9994 8.51074ZM8.92822 14.6237L8.7729 14.367L8.62822 14.4545V14.6237H8.92822ZM8.92822 24.9443H8.62822V25.2443H8.92822V24.9443ZM18.2969 11.1385H21.8683V10.5385H18.2969V11.1385ZM18.0035 4.14214C18.4719 6.32949 18.4719 8.5889 18.0035 10.7756L18.5902 10.9013C19.0763 8.63171 19.0763 6.28667 18.5902 4.01651L18.0035 4.14214ZM15.8889 1.57376C16.9843 2.02777 17.7758 2.98984 18.0026 4.13748L18.5912 4.02117C18.3251 2.6743 17.3971 1.54936 16.1186 1.01948L15.8889 1.57376ZM12.5498 1.88197C13.5408 1.23587 14.7933 1.11971 15.8889 1.57376L16.1186 1.01947C14.8403 0.48971 13.3793 0.624966 12.2221 1.37936L12.5498 1.88197ZM10.9543 4.78662C10.9618 3.61753 11.5592 2.5278 12.5498 1.88197L12.2221 1.37936C11.0646 2.13402 10.3631 3.41012 10.3543 4.78276L10.9543 4.78662ZM10.9543 8.48738V4.78469H10.3543V8.48738H10.9543ZM8.75027 12.263C10.0232 11.4094 10.8345 10.0289 10.9534 8.51079L10.3552 8.46396C10.2508 9.79739 9.53803 11.0123 8.41609 11.7647L8.75027 12.263ZM6.71271 11.3266C7.3654 11.3291 7.97299 11.6507 8.3352 12.1827L8.83117 11.8451C8.35634 11.1476 7.56304 10.7299 6.71501 10.7266L6.71271 11.3266ZM3.25007 11.3266H6.71386V10.7266H3.25007V11.3266ZM1.86997 11.891C2.23541 11.5301 2.73152 11.3266 3.25007 11.3266V10.7266C2.57468 10.7266 1.92682 10.9916 1.44837 11.4641L1.86997 11.891ZM1.3 13.2484C1.3 12.7399 1.50457 12.2518 1.86996 11.891L1.44839 11.4641C0.969765 11.9367 0.7 12.5782 0.7 13.2484H1.3ZM1.3 26.7782V13.2484H0.7V26.7782H1.3ZM1.86994 28.1356C1.50458 27.7749 1.3 27.2868 1.3 26.7782H0.7C0.7 27.4485 0.96976 28.09 1.4484 28.5626L1.86994 28.1356ZM3.25007 28.7C2.73159 28.7 2.23547 28.4966 1.86996 28.1356L1.44839 28.5626C1.92688 29.0351 2.57474 29.3 3.25007 29.3V28.7ZM6.69007 28.7H3.25007V29.3H6.69007V28.7ZM7.91359 28.2751C7.56681 28.5493 7.13531 28.6995 6.68973 28.7L6.6904 29.3C7.2702 29.2994 7.8327 29.104 8.28576 28.7457L7.91359 28.2751ZM8.60015 27.1931C8.5022 27.6197 8.26043 28.0013 7.9138 28.2749L8.28555 28.7459C8.73876 28.3881 9.05618 27.8881 9.18493 27.3274L8.60015 27.1931ZM19.6067 26.9603H8.89254V27.5603H19.6067V26.9603ZM22.624 25.531C21.8898 26.4327 20.7807 26.9587 19.6063 26.9603L19.6071 27.5603C20.96 27.5584 22.2402 26.9526 23.0893 25.9098L22.624 25.531ZM25.6996 15.0082C25.6638 18.1287 25.0817 22.4518 22.6222 25.5332L23.0911 25.9075C25.6794 22.6648 26.2633 18.1715 26.2996 15.0151L25.6996 15.0082ZM24.5881 12.2762C25.3142 13.0034 25.7142 13.9874 25.6996 15.0074L26.2996 15.016C26.3164 13.833 25.8525 12.6933 25.0127 11.8523L24.5881 12.2762ZM21.833 11.1382C22.8695 11.1382 23.8618 11.5484 24.5881 12.2762L25.0128 11.8523C24.1731 11.0109 23.0275 10.5382 21.833 10.5382V11.1382ZM21.8703 10.5385L21.835 10.5382L21.831 11.1382L21.8663 11.1385L21.8703 10.5385ZM3.38058 26.949H6.55895V26.349H3.38058V26.949ZM3.08058 13.3424V26.649H3.68058V13.3424H3.08058ZM6.55895 13.0424H3.38058V13.6424H6.55895V13.0424ZM6.85895 26.649V13.3424H6.25895V26.649H6.85895ZM20.7912 24.1074C20.5112 24.4477 20.0894 24.6457 19.6433 24.6443L19.6414 25.2443C20.266 25.2463 20.8592 24.9691 21.2545 24.4886L20.7912 24.1074ZM20.7228 24.264L20.7229 24.2989L21.3229 24.2971L21.3228 24.2622L20.7228 24.264ZM23.3421 15.0561C23.3184 17.7368 22.8408 21.5712 20.7907 24.0729L21.2548 24.4532C23.4436 21.7822 23.9181 17.7645 23.9421 15.0614L23.3421 15.0561ZM22.9179 14.0128C23.1956 14.2903 23.3479 14.6658 23.3421 15.0543L23.9421 15.0632C23.9502 14.5115 23.734 13.9801 23.3421 13.5884L22.9179 14.0128ZM21.8553 13.5719C22.2558 13.5734 22.6382 13.7323 22.9176 14.0124L23.3424 13.5887C22.9498 13.195 22.4149 12.9739 21.8575 12.9719L21.8553 13.5719ZM16.5586 13.5719H21.8564V12.9719H16.5586V13.5719ZM15.3072 12.8947C15.5816 13.3169 16.0532 13.5712 16.5581 13.5719L16.559 12.9719C16.2548 12.9715 15.9731 12.8183 15.8103 12.5678L15.3072 12.8947ZM15.2069 11.4224C14.9706 11.8984 15.0112 12.4625 15.3112 12.9007L15.8063 12.5618C15.6285 12.3021 15.6051 11.9696 15.7443 11.6891L15.2069 11.4224ZM15.6235 4.57078C16.156 6.85715 16.0069 9.24717 15.1941 11.452L15.7571 11.6595C16.6103 9.34481 16.767 6.83534 16.2078 4.43468L15.6235 4.57078ZM14.36 3.66715C14.9546 3.60969 15.4947 3.99964 15.623 4.56869L16.2083 4.43676C16.0124 3.56741 15.1923 2.98391 14.3023 3.06994L14.36 3.66715ZM13.2994 4.79164C13.3131 4.21005 13.7657 3.7246 14.36 3.66715L14.3023 3.06994C13.412 3.15599 12.7206 3.88621 12.6995 4.77744L13.2994 4.79164ZM13.2994 8.51074V4.78454H12.6994V8.51074H13.2994ZM9.08354 14.8803C9.76055 14.4706 10.8143 13.7275 11.6986 12.6675C12.5843 11.6059 13.3121 10.211 13.2994 8.50851L12.6995 8.51297C12.7107 10.0316 12.0636 11.2934 11.2379 12.2831C10.411 13.2743 9.41714 13.9771 8.7729 14.367L9.08354 14.8803ZM9.22822 24.9443V14.6237H8.62822V24.9443H9.22822ZM19.6424 24.6443H8.92822V25.2443H19.6424V24.6443Z" fill="white"/>
</svg>
